<?xml version="1.0" encoding="utf-8"?>
<!-- Generator: Adobe Illustrator 27.5.0, SVG Export Plug-In . SVG Version: 6.00 Build 0)  -->
<svg version="1.1" xmlns="http://www.w3.org/2000/svg" xmlns:xlink="http://www.w3.org/1999/xlink" x="0px" y="0px"
	 viewBox="0 0 500 500" style="enable-background:new 0 0 500 500;" xml:space="preserve">
<g id="Floor">
	<ellipse style="fill:#F5F5F5;" cx="249.705" cy="361.527" rx="201.958" ry="116.6"/>
</g>
<g id="Shadow">
	<path style="fill:#E0E0E0;" d="M300.908,435.729l50.22-28.995c6.074-3.507,6.074-9.192,0-12.698l-84.608-48.849
		c-6.074-3.507-15.921-3.507-21.994,0l-50.22,28.994c-6.074,3.507-6.074,9.192,0,12.699l84.609,48.849
		C284.987,439.236,294.834,439.236,300.908,435.729z"/>
	<ellipse style="fill:#E0E0E0;" cx="189.75" cy="345.807" rx="52.321" ry="30.208"/>
</g>
<g id="Shelves">
	<g id="Bottles">
		<g>
			<path style="fill:#F0F0F0;" d="M346.311,107.134v-4.504h0.002c0.014-0.428,0.312-0.863,0.896-1.201l27.049-15.617
				c1.148-0.663,3.01-0.663,4.158,0l77.76,44.895c0.584,0.337,0.883,0.773,0.896,1.201h0.004v4.504h-0.004
				c-0.014,0.428-0.312,0.863-0.896,1.2l-27.049,15.617c-1.148,0.663-3.01,0.663-4.158,0l-77.76-44.895
				c-0.584-0.337-0.883-0.772-0.896-1.201H346.311z"/>
			<path style="fill:#FAFAFA;" d="M456.177,133.108l-27.049,15.617c-1.148,0.663-3.01,0.663-4.158,0l-77.76-44.895
				c-1.148-0.663-1.148-1.738,0-2.401l27.049-15.617c1.148-0.663,3.01-0.663,4.158,0l77.76,44.895
				C457.326,131.37,457.326,132.445,456.177,133.108z"/>
			<path style="fill:#E0E0E0;" d="M427.053,149.226v4.504c0.749,0,1.498-0.173,2.074-0.499l27.052-15.615
				c0.586-0.336,0.884-0.778,0.893-1.2h0.01v-4.504h-0.01c-0.006-0.172-0.073-0.343-0.17-0.51c0.314,0.581,0.078,1.248-0.723,1.711
				l-27.052,15.615C428.56,149.062,427.802,149.226,427.053,149.226z"/>
		</g>
		<g>
			<g id="XMLID_1143_">
				<path id="XMLID_2998_" style="opacity:0.03;" d="M381.55,106.191c4.132-2.362,4.132-6.191,0-8.553
					c-4.132-2.362-10.831-2.362-14.962,0s-4.132,6.191,0,8.553C370.719,108.553,377.418,108.553,381.55,106.191z"/>
				<path id="XMLID_2997_" style="fill:#F0F0F0;" d="M366.193,69.524c0.43-0.248,0.89-0.468,1.373-0.661
					c0.893-0.356,1.496-1.198,1.496-2.16v-3.893h8.606v3.893c0,0.961,0.603,1.803,1.496,2.16c0.483,0.193,0.943,0.412,1.373,0.661
					c1.981,1.144,2.971,3.385,2.971,4.884v26.19c0,1.499-0.99,2.998-2.971,4.141c-3.961,2.287-10.382,2.287-14.343,0
					c-1.98-1.143-2.97-2.642-2.97-4.14V74.408C363.222,72.909,364.212,70.668,366.193,69.524z"/>
				<path style="fill:#E0E0E0;" d="M366.191,79.783c3.958,2.263,10.376,2.263,14.334,0c1.979-1.131,2.969-2.614,2.969-4.097v18.571
					c0,1.483-0.99,2.965-2.969,4.097c-3.958,2.263-10.376,2.263-14.334,0c-1.979-1.131-2.969-2.614-2.969-4.097V75.686
					C363.222,77.169,364.211,78.652,366.191,79.783z"/>
				<path id="XMLID_2863_" style="opacity:0.3;fill:#EBEBEB;" d="M380.236,100.66c0-2.535,0-21.238,0-25.643
					c0-1.244-0.262-2.931-1.753-3.686c-2.974-1.507-3.353-2.724-3.353-4.25c0-1.447,0-1.871,0-4.27h2.536v3.893
					c0,0.961,0.603,1.803,1.496,2.16c0.483,0.193,0.943,0.412,1.373,0.661c1.98,1.143,2.971,3.385,2.97,4.884v26.19
					c0,1.499-0.99,2.997-2.971,4.141c-2.85,1.645-6.97,2.1-10.534,1.378C378.243,106.685,380.236,103.189,380.236,100.66z"/>
				<path id="XMLID_2849_" style="fill:#E6E6E6;" d="M368.802,61.655v1.149c-0.004,0.685,0.451,1.375,1.361,1.902
					c1.812,1.046,4.75,1.046,6.566,0c0.451-0.261,0.793-0.563,1.019-0.888c0.225-0.32,0.338-0.663,0.338-1.005v-1.167
					c0-0.104-0.009-0.207-0.036-0.311c-0.113-0.581-0.554-1.145-1.321-1.586c-0.023-0.014-0.045-0.027-0.068-0.036
					c-1.821-1.01-4.71-0.996-6.499,0.036c-0.766,0.442-1.212,1.005-1.325,1.582C368.811,61.438,368.802,61.547,368.802,61.655z"/>
				<path id="XMLID_2847_" style="fill:#E0E0E0;" d="M376.727,63.54c1.813-1.047,1.813-2.744,0-3.79
					c-1.813-1.047-4.752-1.047-6.565,0c-1.813,1.047-1.813,2.744,0,3.79C371.975,64.586,374.914,64.586,376.727,63.54z"/>
				<path id="XMLID_2846_" style="fill:#E6E6E6;" d="M368.802,58.103v2.902c0,0.108,0.009,0.216,0.036,0.325
					c0.113,0.577,0.559,1.14,1.325,1.582c0.811,0.469,1.848,0.726,2.902,0.771c1.311,0.063,2.659-0.194,3.664-0.775
					c0.451-0.261,0.789-0.559,1.019-0.883c0.158-0.221,0.257-0.455,0.302-0.69c0.027-0.104,0.036-0.212,0.036-0.316v-2.925
					c0-0.689-0.451-1.375-1.357-1.897c-0.081-0.045-0.162-0.09-0.248-0.131c-1.825-0.915-4.588-0.87-6.318,0.131
					C369.252,56.724,368.797,57.414,368.802,58.103z"/>
				<path style="fill:#F5F5F5;" d="M368.802,58.08c0,1.474,2.078,2.669,4.642,2.669s4.642-1.195,4.642-2.669
					c0-1.474-2.078-2.669-4.642-2.669S368.802,56.607,368.802,58.08z"/>
			</g>
			<g id="XMLID_1145_">
				<path id="XMLID_1157_" style="opacity:0.03;" d="M400.362,116.872c4.132-2.362,4.132-6.191,0-8.553
					c-4.132-2.362-10.831-2.362-14.962,0c-4.132,2.362-4.132,6.191,0,8.553C389.532,119.234,396.231,119.234,400.362,116.872z"/>
				<path id="XMLID_1155_" style="fill:#F0F0F0;" d="M385.005,80.205c0.43-0.248,0.89-0.468,1.373-0.661
					c0.893-0.356,1.496-1.198,1.496-2.159v-3.893h8.606v3.893c0,0.961,0.603,1.803,1.496,2.16c0.483,0.193,0.943,0.412,1.373,0.661
					c1.98,1.144,2.971,3.385,2.97,4.884v26.19c0,1.499-0.99,2.997-2.971,4.141c-3.961,2.287-10.382,2.287-14.343,0
					c-1.98-1.143-2.97-2.642-2.97-4.14V85.089C382.034,83.59,383.025,81.349,385.005,80.205z"/>
				<path style="fill:#E0E0E0;" d="M385.003,90.464c3.958,2.263,10.376,2.263,14.334,0c1.979-1.131,2.969-2.614,2.969-4.097v18.571
					c0,1.483-0.99,2.965-2.969,4.097c-3.958,2.263-10.376,2.263-14.334,0c-1.979-1.131-2.969-2.614-2.969-4.097V86.367
					C382.034,87.85,383.024,89.333,385.003,90.464z"/>
				<path id="XMLID_1153_" style="opacity:0.3;fill:#EBEBEB;" d="M399.048,111.342c0-2.535,0-21.238,0-25.643
					c0-1.244-0.262-2.931-1.753-3.686c-2.974-1.507-3.352-2.724-3.352-4.25c0-1.448,0-1.871,0-4.27h2.536v3.893
					c0,0.961,0.603,1.803,1.496,2.16c0.483,0.193,0.943,0.412,1.373,0.661c1.98,1.144,2.971,3.385,2.97,4.884v26.19
					c0,1.499-0.99,2.997-2.971,4.141c-2.849,1.645-6.97,2.1-10.534,1.378C397.055,117.366,399.048,113.87,399.048,111.342z"/>
				<path id="XMLID_1152_" style="fill:#E6E6E6;" d="M387.614,72.336v1.149c-0.004,0.685,0.451,1.375,1.361,1.902
					c1.812,1.046,4.75,1.046,6.566,0c0.451-0.261,0.793-0.563,1.019-0.888c0.225-0.32,0.338-0.662,0.338-1.005v-1.167
					c0-0.104-0.009-0.207-0.036-0.311c-0.113-0.581-0.554-1.145-1.321-1.587c-0.022-0.013-0.045-0.027-0.068-0.036
					c-1.821-1.01-4.71-0.996-6.499,0.036c-0.766,0.442-1.212,1.005-1.325,1.582C387.623,72.119,387.614,72.228,387.614,72.336z"/>
				<path id="XMLID_1148_" style="fill:#E0E0E0;" d="M395.539,74.221c1.813-1.047,1.813-2.744,0-3.79
					c-1.813-1.047-4.752-1.047-6.565,0c-1.813,1.047-1.813,2.744,0,3.79C390.787,75.268,393.727,75.268,395.539,74.221z"/>
				<path id="XMLID_1146_" style="fill:#E6E6E6;" d="M387.614,68.785v2.902c0,0.108,0.009,0.216,0.036,0.325
					c0.113,0.577,0.559,1.14,1.325,1.582c0.811,0.469,1.848,0.726,2.902,0.771c1.312,0.063,2.659-0.194,3.664-0.775
					c0.451-0.261,0.789-0.559,1.019-0.883c0.158-0.221,0.257-0.455,0.302-0.689c0.027-0.104,0.036-0.212,0.036-0.315v-2.925
					c0-0.69-0.451-1.375-1.357-1.897c-0.081-0.045-0.162-0.09-0.248-0.131c-1.825-0.915-4.588-0.87-6.318,0.131
					C388.065,67.405,387.61,68.095,387.614,68.785z"/>
				<ellipse style="fill:#F5F5F5;" cx="392.256" cy="68.761" rx="4.642" ry="2.668"/>
			</g>
			<g id="XMLID_1159_">
				<path id="XMLID_2815_" style="opacity:0.03;" d="M419.175,127.553c4.132-2.362,4.132-6.191,0-8.553
					c-4.132-2.362-10.831-2.362-14.962,0c-4.132,2.362-4.132,6.191,0,8.553C408.344,129.915,415.043,129.915,419.175,127.553z"/>
				<path id="XMLID_2814_" style="fill:#F0F0F0;" d="M403.818,90.887c0.43-0.248,0.89-0.468,1.373-0.661
					c0.893-0.356,1.496-1.198,1.496-2.16v-3.893h8.606v3.893c0,0.961,0.603,1.803,1.496,2.16c0.483,0.193,0.943,0.412,1.373,0.661
					c1.98,1.143,2.971,3.385,2.97,4.884v26.19c0,1.499-0.99,2.997-2.971,4.141c-3.961,2.287-10.382,2.287-14.343,0
					c-1.98-1.143-2.97-2.642-2.97-4.14V95.77C400.847,94.272,401.837,92.03,403.818,90.887z"/>
				<path style="fill:#E0E0E0;" d="M403.816,101.146c3.958,2.263,10.376,2.263,14.334,0c1.979-1.131,2.969-2.614,2.969-4.097v18.571
					c0,1.483-0.99,2.965-2.969,4.097c-3.958,2.263-10.376,2.263-14.334,0c-1.979-1.131-2.969-2.614-2.969-4.097V97.048
					C400.847,98.531,401.836,100.014,403.816,101.146z"/>
				<path id="XMLID_2813_" style="opacity:0.3;fill:#EBEBEB;" d="M417.861,122.023c0-2.535,0-21.238,0-25.643
					c0-1.244-0.262-2.931-1.753-3.686c-2.975-1.507-3.353-2.724-3.353-4.25c0-1.448,0-1.871,0-4.27h2.536v3.893
					c0,0.961,0.603,1.803,1.496,2.16c0.483,0.193,0.943,0.412,1.373,0.661c1.98,1.143,2.971,3.385,2.97,4.884v26.19
					c0,1.499-0.99,2.997-2.971,4.141c-2.849,1.645-6.97,2.1-10.534,1.378C415.868,128.048,417.861,124.551,417.861,122.023z"/>
				<path id="XMLID_2812_" style="fill:#E6E6E6;" d="M406.427,83.017v1.149c-0.005,0.685,0.451,1.375,1.361,1.902
					c1.812,1.046,4.75,1.046,6.566,0c0.451-0.261,0.793-0.563,1.019-0.888c0.225-0.32,0.338-0.663,0.338-1.005v-1.167
					c0-0.104-0.009-0.207-0.036-0.311c-0.113-0.581-0.554-1.145-1.321-1.586c-0.022-0.014-0.045-0.027-0.067-0.036
					c-1.821-1.009-4.71-0.996-6.499,0.036c-0.766,0.442-1.212,1.005-1.325,1.582C406.436,82.801,406.427,82.909,406.427,83.017z"/>
				<path id="XMLID_2811_" style="fill:#E0E0E0;" d="M414.352,84.902c1.813-1.047,1.813-2.744,0-3.79
					c-1.813-1.047-4.752-1.047-6.565,0c-1.813,1.047-1.813,2.744,0,3.79C409.6,85.949,412.539,85.949,414.352,84.902z"/>
				<path id="XMLID_2810_" style="fill:#E6E6E6;" d="M406.427,79.466v2.902c0,0.108,0.009,0.216,0.036,0.325
					c0.113,0.577,0.559,1.14,1.325,1.582c0.811,0.469,1.848,0.726,2.902,0.771c1.312,0.063,2.659-0.194,3.664-0.775
					c0.451-0.261,0.789-0.559,1.019-0.883c0.158-0.221,0.257-0.455,0.302-0.689c0.027-0.104,0.036-0.212,0.036-0.315v-2.925
					c0-0.689-0.451-1.375-1.357-1.897c-0.081-0.045-0.162-0.09-0.248-0.131c-1.825-0.915-4.588-0.87-6.318,0.131
					C406.877,78.087,406.422,78.776,406.427,79.466z"/>
				<ellipse style="fill:#F5F5F5;" cx="411.069" cy="79.443" rx="4.642" ry="2.668"/>
			</g>
			<g id="XMLID_2845_">
				<path id="XMLID_2854_" style="opacity:0.03;" d="M437.987,138.234c4.132-2.362,4.132-6.191,0-8.553
					c-4.132-2.362-10.831-2.362-14.962,0c-4.132,2.362-4.132,6.191,0,8.553C427.157,140.596,433.856,140.596,437.987,138.234z"/>
				<path id="XMLID_2853_" style="fill:#F0F0F0;" d="M422.63,101.568c0.43-0.248,0.89-0.468,1.373-0.661
					c0.893-0.356,1.496-1.198,1.496-2.16v-3.893h8.606v3.893c0,0.961,0.603,1.803,1.496,2.16c0.483,0.193,0.943,0.412,1.373,0.661
					c1.981,1.143,2.971,3.385,2.97,4.884v26.19c0,1.499-0.99,2.998-2.97,4.141c-3.961,2.287-10.382,2.287-14.343,0
					c-1.98-1.143-2.97-2.642-2.97-4.14v-26.191C419.66,104.953,420.65,102.711,422.63,101.568z"/>
				<path style="fill:#E0E0E0;" d="M422.628,111.827c3.958,2.263,10.376,2.263,14.334,0c1.979-1.131,2.969-2.614,2.969-4.097v18.571
					c0,1.483-0.99,2.965-2.969,4.097c-3.958,2.263-10.376,2.263-14.334,0c-1.979-1.131-2.969-2.614-2.969-4.097v-18.571
					C419.659,109.212,420.649,110.695,422.628,111.827z"/>
				<path id="XMLID_2852_" style="opacity:0.3;fill:#EBEBEB;" d="M436.674,132.704c0-2.535,0-21.238,0-25.643
					c0-1.244-0.262-2.931-1.753-3.686c-2.975-1.507-3.353-2.724-3.353-4.25c0-1.448,0-1.871,0-4.27h2.536v3.893
					c0,0.961,0.603,1.803,1.496,2.16c0.483,0.193,0.943,0.412,1.373,0.661c1.98,1.143,2.971,3.385,2.97,4.884v26.19
					c0,1.499-0.99,2.997-2.97,4.141c-2.85,1.645-6.97,2.1-10.534,1.378C434.68,138.729,436.674,135.232,436.674,132.704z"/>
				<path id="XMLID_2851_" style="fill:#E6E6E6;" d="M425.239,93.698v1.149c-0.004,0.685,0.451,1.375,1.361,1.902
					c1.812,1.046,4.75,1.046,6.566,0c0.451-0.261,0.793-0.563,1.018-0.888c0.225-0.32,0.338-0.662,0.338-1.005v-1.167
					c0-0.104-0.009-0.207-0.036-0.311c-0.113-0.581-0.554-1.145-1.32-1.586c-0.023-0.014-0.045-0.027-0.068-0.036
					c-1.821-1.01-4.71-0.996-6.499,0.036c-0.766,0.442-1.212,1.005-1.325,1.582C425.248,93.482,425.239,93.59,425.239,93.698z"/>
				<path id="XMLID_2850_" style="fill:#E0E0E0;" d="M433.165,95.583c1.813-1.047,1.813-2.744,0-3.79
					c-1.813-1.047-4.752-1.047-6.565,0c-1.813,1.047-1.813,2.744,0,3.79C428.413,96.63,431.352,96.63,433.165,95.583z"/>
				<path id="XMLID_2848_" style="fill:#E6E6E6;" d="M425.239,90.147v2.902c0,0.108,0.009,0.216,0.036,0.324
					c0.113,0.577,0.559,1.14,1.325,1.582c0.811,0.469,1.848,0.726,2.902,0.771c1.312,0.063,2.659-0.194,3.664-0.775
					c0.451-0.261,0.789-0.559,1.018-0.883c0.158-0.221,0.257-0.455,0.302-0.69c0.027-0.104,0.036-0.212,0.036-0.315v-2.925
					c0-0.69-0.451-1.375-1.356-1.897c-0.081-0.045-0.162-0.09-0.248-0.131c-1.825-0.915-4.588-0.87-6.319,0.131
					C425.69,88.768,425.235,89.457,425.239,90.147z"/>
				<path style="fill:#F5F5F5;" d="M425.239,90.124c0,1.474,2.078,2.669,4.642,2.669c2.564,0,4.642-1.195,4.642-2.669
					c0-1.474-2.078-2.669-4.642-2.669C427.318,87.455,425.239,88.65,425.239,90.124z"/>
			</g>
		</g>
	</g>
	<g id="Cans_1_">
		<g>
			<path style="fill:#F0F0F0;" d="M138.798,87.574V83.07h-0.002c-0.014-0.428-0.312-0.863-0.896-1.201L110.85,66.253
				c-1.148-0.663-3.01-0.663-4.158,0l-77.76,44.895c-0.584,0.337-0.883,0.772-0.897,1.201h-0.004v4.504h0.004
				c0.014,0.428,0.312,0.863,0.897,1.2l27.049,15.617c1.148,0.663,3.01,0.663,4.158,0l77.76-44.895
				c0.584-0.337,0.883-0.772,0.896-1.201H138.798z"/>
			<path style="fill:#FAFAFA;" d="M28.932,113.548l27.049,15.617c1.148,0.663,3.01,0.663,4.158,0l77.76-44.895
				c1.148-0.663,1.148-1.738,0-2.401L110.85,66.253c-1.148-0.663-3.01-0.663-4.158,0l-77.76,44.895
				C27.784,111.81,27.784,112.885,28.932,113.548z"/>
			<path style="fill:#E0E0E0;" d="M58.056,129.666v4.504c-0.749,0-1.498-0.173-2.074-0.499L28.93,118.055
				c-0.586-0.336-0.884-0.778-0.893-1.2h-0.01v-4.504h0.01c0.006-0.171,0.073-0.343,0.17-0.51c-0.314,0.581-0.078,1.248,0.723,1.711
				l27.052,15.615C56.549,129.503,57.307,129.666,58.056,129.666z"/>
		</g>
		<g>
			<g>
				<ellipse style="opacity:0.03;" cx="112.142" cy="79.607" rx="12.67" ry="7.315"/>
				<g>
					<path style="fill:#EBEBEB;" d="M124.097,79.535h0.016V58.172h-21.396v21.362h0.016c-0.09,1.645,0.942,3.308,3.117,4.563
						c4.178,2.412,10.952,2.412,15.129,0C123.156,82.842,124.188,81.18,124.097,79.535z"/>
					<ellipse style="fill:#FAFAFA;" cx="113.415" cy="58.173" rx="10.698" ry="6.177"/>
					<path style="fill:#EBEBEB;" d="M106.313,62.183c3.923,2.215,10.283,2.215,14.206,0c3.923-2.215,3.923-5.806,0-8.022
						c-3.923-2.215-10.283-2.215-14.206,0C102.39,56.377,102.39,59.968,106.313,62.183z"/>
					<path style="fill:#F5F5F5;" d="M120.518,55.2c-3.923-2.215-10.283-2.215-14.206,0c-1.727,0.975-2.692,2.218-2.898,3.492
						c0.206,1.274,1.171,2.517,2.898,3.492c3.923,2.215,10.283,2.215,14.206,0c1.727-0.975,2.692-2.218,2.898-3.492
						C123.21,57.417,122.246,56.175,120.518,55.2z"/>
					<path style="fill:#E0E0E0;" d="M102.718,75.923c-0.014,1.591,1.03,3.186,3.133,4.4c4.178,2.412,10.952,2.412,15.129,0
						c2.089-1.206,3.133-2.787,3.133-4.368V61.654c0,1.581-1.045,3.161-3.133,4.367c-4.178,2.412-10.951,2.412-15.129,0
						c-2.103-1.214-3.148-2.808-3.133-4.4V75.923z"/>
					<path style="opacity:0.05;" d="M117.797,85.362c-3.934,1.014-8.717,0.603-11.943-1.268c-2.177-1.25-3.208-2.911-3.121-4.564
						h-0.018V58.172c0,1.583,1.049,3.165,3.139,4.371c0.332,0.192,0.673,0.367,1.032,0.516v19.077
						C106.886,83.92,112.848,86.044,117.797,85.362z"/>
					<g>
						<path style="fill:#E0E0E0;" d="M115.857,61.982l-1.135-0.655c-0.921-0.532-1.168-1.252-0.55-1.608
							c0.617-0.356,1.865-0.214,2.786,0.318l1.135,0.655c0.921,0.532,1.167,1.252,0.55,1.608
							C118.026,62.656,116.779,62.514,115.857,61.982z"/>
						<path style="fill:#F5F5F5;" d="M114.67,60.71c0.337,0.194,0.882,0.194,1.219,0c0.337-0.194,0.337-0.509,0-0.704
							c-0.337-0.194-0.882-0.194-1.219,0C114.333,60.201,114.333,60.516,114.67,60.71z"/>
						<path style="fill:#F5F5F5;" d="M116.92,61.926c0.337,0.194,0.882,0.194,1.219,0c0.337-0.194,0.337-0.509,0-0.704
							c-0.337-0.194-0.882-0.194-1.219,0C116.583,61.417,116.583,61.732,116.92,61.926z"/>
					</g>
				</g>
			</g>
			<g>
				<ellipse style="opacity:0.03;" cx="92.63" cy="90.849" rx="12.67" ry="7.315"/>
				<g>
					<path style="fill:#EBEBEB;" d="M104.586,90.777h0.016V69.415H83.205v21.362h0.016c-0.09,1.645,0.942,3.308,3.117,4.563
						c4.178,2.412,10.951,2.412,15.129,0C103.644,94.084,104.676,92.422,104.586,90.777z"/>
					<path style="fill:#FAFAFA;" d="M86.339,73.782c4.178,2.412,10.952,2.412,15.129,0c4.178-2.412,4.178-6.323,0-8.735
						c-4.178-2.412-10.952-2.412-15.129,0C82.161,67.459,82.161,71.37,86.339,73.782z"/>
					<ellipse style="fill:#EBEBEB;" cx="93.904" cy="69.415" rx="10.045" ry="5.672"/>
					<path style="fill:#F5F5F5;" d="M101.006,66.442c-3.923-2.215-10.283-2.215-14.206,0c-1.727,0.975-2.692,2.218-2.898,3.492
						c0.206,1.274,1.171,2.516,2.898,3.492c3.923,2.215,10.283,2.215,14.205,0c1.727-0.975,2.692-2.218,2.898-3.492
						C103.699,68.66,102.734,67.417,101.006,66.442z"/>
					<path style="fill:#E0E0E0;" d="M83.206,87.166c-0.014,1.591,1.03,3.186,3.133,4.4c4.178,2.412,10.952,2.412,15.129,0
						c2.089-1.206,3.133-2.787,3.133-4.368V72.896c0,1.581-1.044,3.161-3.133,4.368c-4.178,2.412-10.951,2.412-15.129,0
						c-2.103-1.214-3.148-2.808-3.133-4.4V87.166z"/>
					<path style="opacity:0.05;" d="M98.285,96.604c-3.934,1.014-8.717,0.603-11.943-1.268c-2.177-1.25-3.209-2.911-3.121-4.564
						h-0.018V69.414c0,1.582,1.049,3.165,3.139,4.371c0.332,0.192,0.673,0.367,1.032,0.516v19.077
						C87.374,95.162,93.336,97.286,98.285,96.604z"/>
					<g>
						<path style="fill:#E0E0E0;" d="M96.345,73.225l-1.135-0.655c-0.921-0.532-1.168-1.252-0.55-1.608
							c0.617-0.356,1.865-0.214,2.786,0.318l1.135,0.655c0.921,0.532,1.168,1.252,0.55,1.608
							C98.514,73.899,97.267,73.756,96.345,73.225z"/>
						<path style="fill:#F5F5F5;" d="M95.158,71.953c0.337,0.194,0.882,0.194,1.219,0c0.337-0.194,0.337-0.509,0-0.704
							c-0.337-0.194-0.882-0.194-1.219,0C94.822,71.443,94.822,71.758,95.158,71.953z"/>
						<path style="fill:#F5F5F5;" d="M97.408,73.168c0.337,0.194,0.882,0.194,1.219,0c0.337-0.194,0.337-0.509,0-0.704
							c-0.337-0.194-0.882-0.194-1.219,0C97.071,72.659,97.071,72.974,97.408,73.168z"/>
					</g>
				</g>
			</g>
			<g>
				<path style="opacity:0.03;" d="M64.159,107.264c4.948,2.857,12.971,2.857,17.919,0c4.948-2.857,4.948-7.489,0-10.345
					c-4.948-2.857-12.971-2.857-17.919,0C59.21,99.776,59.21,104.408,64.159,107.264z"/>
				<g>
					<path style="fill:#EBEBEB;" d="M85.074,102.019h0.016V80.657H63.694v21.362h0.016c-0.09,1.646,0.942,3.308,3.117,4.563
						c4.178,2.412,10.951,2.412,15.129,0C84.132,105.326,85.164,103.664,85.074,102.019z"/>
					<path style="fill:#FAFAFA;" d="M66.827,85.024c4.178,2.412,10.951,2.412,15.129,0c4.178-2.412,4.178-6.323,0-8.735
						c-4.178-2.412-10.951-2.412-15.129,0C62.649,78.702,62.649,82.612,66.827,85.024z"/>
					<path style="fill:#EBEBEB;" d="M67.289,84.668c3.923,2.215,10.283,2.215,14.205,0c3.923-2.215,3.923-5.806,0-8.021
						c-3.923-2.215-10.283-2.215-14.206,0C63.366,78.861,63.366,82.453,67.289,84.668z"/>
					<path style="fill:#F5F5F5;" d="M81.495,77.684c-3.923-2.215-10.283-2.215-14.206,0c-1.727,0.975-2.692,2.218-2.898,3.492
						c0.206,1.274,1.171,2.516,2.898,3.492c3.923,2.215,10.283,2.215,14.206,0c1.727-0.975,2.692-2.218,2.898-3.492
						C84.187,79.902,83.222,78.66,81.495,77.684z"/>
					<path style="fill:#E0E0E0;" d="M63.694,98.408c-0.014,1.591,1.03,3.186,3.133,4.4c4.178,2.412,10.951,2.412,15.129,0
						c2.089-1.206,3.133-2.787,3.133-4.367V84.138c0,1.581-1.044,3.162-3.133,4.368c-4.178,2.412-10.951,2.412-15.129,0
						c-2.103-1.214-3.148-2.808-3.133-4.4V98.408z"/>
					<path style="opacity:0.05;" d="M78.773,107.846c-3.934,1.014-8.717,0.603-11.943-1.268c-2.177-1.25-3.209-2.911-3.121-4.564
						h-0.017V80.656c0,1.583,1.049,3.165,3.139,4.372c0.332,0.192,0.673,0.367,1.032,0.516v19.077
						C67.862,106.404,73.825,108.529,78.773,107.846z"/>
					<g>
						<path style="fill:#E0E0E0;" d="M76.834,84.467l-1.135-0.655c-0.921-0.532-1.168-1.252-0.55-1.608
							c0.617-0.356,1.865-0.214,2.786,0.318l1.135,0.655c0.921,0.532,1.168,1.252,0.55,1.608
							C79.002,85.141,77.755,84.999,76.834,84.467z"/>
						<path style="fill:#F5F5F5;" d="M75.646,83.195c0.337,0.194,0.882,0.194,1.219,0c0.337-0.194,0.337-0.509,0-0.704
							c-0.337-0.194-0.882-0.194-1.219,0C75.31,82.686,75.31,83.001,75.646,83.195z"/>
						<path style="fill:#F5F5F5;" d="M77.896,84.41c0.337,0.194,0.882,0.194,1.219,0c0.337-0.194,0.337-0.509,0-0.704
							c-0.337-0.194-0.882-0.194-1.219,0C77.559,83.901,77.559,84.216,77.896,84.41z"/>
					</g>
				</g>
			</g>
			<g>
				<path style="opacity:0.03;" d="M44.647,118.507c4.948,2.857,12.971,2.857,17.919,0c4.948-2.857,4.948-7.489,0-10.345
					c-4.948-2.857-12.971-2.857-17.919,0C39.699,111.018,39.699,115.65,44.647,118.507z"/>
				<g>
					<path style="fill:#EBEBEB;" d="M65.562,113.261h0.016V91.899H44.182v21.362h0.016c-0.09,1.645,0.942,3.308,3.117,4.563
						c4.178,2.412,10.951,2.412,15.129,0C64.62,116.569,65.652,114.907,65.562,113.261z"/>
					<ellipse style="fill:#FAFAFA;" cx="54.88" cy="91.899" rx="10.698" ry="6.177"/>
					<path style="fill:#EBEBEB;" d="M47.777,95.91c3.923,2.215,10.283,2.215,14.206,0c3.923-2.215,3.923-5.807,0-8.022
						c-3.923-2.215-10.283-2.215-14.206,0C43.854,90.104,43.854,93.695,47.777,95.91z"/>
					<path style="fill:#F5F5F5;" d="M61.983,88.926c-3.923-2.215-10.283-2.215-14.206,0c-1.727,0.975-2.692,2.218-2.898,3.492
						c0.206,1.274,1.171,2.516,2.898,3.492c3.923,2.215,10.283,2.215,14.206,0c1.727-0.975,2.692-2.218,2.898-3.492
						C64.675,91.144,63.71,89.902,61.983,88.926z"/>
					<path style="fill:#E0E0E0;" d="M44.182,109.65c-0.014,1.591,1.03,3.186,3.133,4.4c4.178,2.412,10.951,2.412,15.129,0
						c2.089-1.206,3.133-2.787,3.133-4.368V95.381c0,1.581-1.044,3.161-3.133,4.368c-4.178,2.412-10.952,2.412-15.129,0
						c-2.103-1.214-3.148-2.808-3.133-4.4V109.65z"/>
					<path style="opacity:0.05;" d="M59.261,119.089c-3.934,1.014-8.717,0.603-11.943-1.268c-2.177-1.25-3.209-2.911-3.121-4.564
						H44.18V91.898c0,1.582,1.049,3.165,3.139,4.371c0.332,0.192,0.673,0.367,1.032,0.516v19.077
						C48.35,117.646,54.313,119.771,59.261,119.089z"/>
					<g>
						<path style="fill:#E0E0E0;" d="M57.322,95.709l-1.135-0.655c-0.921-0.532-1.168-1.252-0.55-1.608
							c0.617-0.356,1.865-0.214,2.786,0.318l1.135,0.655c0.921,0.532,1.168,1.252,0.55,1.608
							C59.49,96.383,58.243,96.241,57.322,95.709z"/>
						<path style="fill:#F5F5F5;" d="M56.134,94.437c0.337,0.194,0.882,0.194,1.219,0c0.337-0.194,0.337-0.509,0-0.704
							c-0.337-0.194-0.882-0.194-1.219,0C55.798,93.928,55.798,94.243,56.134,94.437z"/>
						<path style="fill:#F5F5F5;" d="M58.384,95.653c0.337,0.194,0.882,0.194,1.219,0c0.337-0.194,0.337-0.509,0-0.704
							c-0.336-0.194-0.882-0.194-1.219,0C58.047,95.143,58.047,95.458,58.384,95.653z"/>
					</g>
				</g>
			</g>
		</g>
	</g>
	<g id="Cans">
		<path style="fill:#E0E0E0;" d="M31.31,164.424c-0.091,0.09-0.145,0.19-0.203,0.289C31.161,164.614,31.226,164.516,31.31,164.424z"
			/>
		<g>
			<path style="fill:#F0F0F0;" d="M138.798,151.175v-4.504h-0.002c-0.014-0.428-0.312-0.863-0.896-1.201l-27.049-15.617
				c-1.148-0.663-3.01-0.663-4.158,0l-77.76,44.895c-0.584,0.337-0.883,0.772-0.897,1.201h-0.004v4.504h0.004
				c0.014,0.428,0.312,0.863,0.897,1.2l27.049,15.617c1.148,0.663,3.01,0.663,4.158,0l77.76-44.895
				c0.584-0.337,0.883-0.772,0.896-1.201H138.798z"/>
			<path style="fill:#FAFAFA;" d="M28.932,177.149l27.049,15.617c1.148,0.663,3.01,0.663,4.158,0l77.76-44.895
				c1.148-0.663,1.148-1.738,0-2.401l-27.049-15.617c-1.148-0.663-3.01-0.663-4.158,0l-77.76,44.895
				C27.784,175.411,27.784,176.486,28.932,177.149z"/>
			<path style="fill:#E0E0E0;" d="M58.056,193.267v4.504c-0.749,0-1.498-0.173-2.074-0.499L28.93,181.656
				c-0.586-0.336-0.884-0.778-0.893-1.2h-0.01v-4.504h0.01c0.006-0.171,0.073-0.343,0.17-0.51c-0.314,0.581-0.078,1.249,0.723,1.711
				l27.052,15.615C56.549,193.104,57.307,193.267,58.056,193.267z"/>
		</g>
		<g>
			<g>
				<ellipse style="opacity:0.03;" cx="112.142" cy="143.208" rx="12.67" ry="7.315"/>
				<g>
					<path style="fill:#EBEBEB;" d="M124.097,143.135h0.016v-21.362h-21.396v21.362h0.016c-0.09,1.645,0.942,3.308,3.117,4.564
						c4.178,2.412,10.952,2.412,15.129,0C123.156,146.443,124.188,144.781,124.097,143.135z"/>
					<ellipse style="fill:#FAFAFA;" cx="113.415" cy="121.774" rx="10.698" ry="6.177"/>
					<ellipse style="fill:#EBEBEB;" cx="113.415" cy="121.774" rx="10.045" ry="5.672"/>
					<path style="fill:#F5F5F5;" d="M120.518,118.801c-3.923-2.215-10.283-2.215-14.206,0c-1.727,0.975-2.692,2.218-2.898,3.492
						c0.206,1.274,1.171,2.516,2.898,3.492c3.923,2.215,10.283,2.215,14.206,0c1.727-0.975,2.692-2.218,2.898-3.492
						C123.21,121.018,122.246,119.776,120.518,118.801z"/>
					<path style="fill:#E0E0E0;" d="M102.718,139.524c-0.014,1.592,1.03,3.186,3.133,4.4c4.178,2.412,10.952,2.412,15.129,0
						c2.089-1.206,3.133-2.787,3.133-4.368v-14.302c0,1.581-1.045,3.161-3.133,4.368c-4.178,2.412-10.951,2.412-15.129,0
						c-2.103-1.214-3.148-2.808-3.133-4.4V139.524z"/>
					<path style="opacity:0.05;" d="M117.797,148.963c-3.934,1.014-8.717,0.603-11.943-1.268c-2.177-1.25-3.208-2.911-3.121-4.564
						h-0.018v-21.359c0,1.583,1.049,3.165,3.139,4.372c0.332,0.192,0.673,0.367,1.032,0.516v19.077
						C106.886,147.52,112.848,149.645,117.797,148.963z"/>
					<g>
						<path style="fill:#E0E0E0;" d="M115.857,125.583l-1.135-0.655c-0.921-0.532-1.168-1.252-0.55-1.608
							c0.617-0.356,1.865-0.214,2.786,0.318l1.135,0.655c0.921,0.532,1.167,1.252,0.55,1.608
							C118.026,126.257,116.779,126.115,115.857,125.583z"/>
						<path style="fill:#F5F5F5;" d="M114.67,124.312c0.337,0.194,0.882,0.194,1.219,0c0.337-0.194,0.337-0.509,0-0.704
							c-0.337-0.194-0.882-0.194-1.219,0C114.333,123.802,114.333,124.117,114.67,124.312z"/>
						<path style="fill:#F5F5F5;" d="M116.92,125.527c0.337,0.194,0.882,0.194,1.219,0c0.337-0.194,0.337-0.509,0-0.704
							c-0.337-0.194-0.882-0.194-1.219,0C116.583,125.018,116.583,125.333,116.92,125.527z"/>
					</g>
				</g>
			</g>
			<g>
				<path style="opacity:0.03;" d="M83.671,159.623c4.948,2.857,12.971,2.857,17.919,0c4.948-2.857,4.948-7.489,0-10.346
					c-4.948-2.857-12.971-2.857-17.919,0C78.722,152.135,78.722,156.766,83.671,159.623z"/>
				<g>
					<path style="fill:#EBEBEB;" d="M104.586,154.378h0.016v-21.362H83.205v21.362h0.016c-0.09,1.645,0.942,3.307,3.117,4.563
						c4.178,2.412,10.951,2.412,15.129,0C103.644,157.685,104.676,156.023,104.586,154.378z"/>
					<ellipse style="fill:#FAFAFA;" cx="93.904" cy="133.016" rx="10.698" ry="6.177"/>
					<path style="fill:#EBEBEB;" d="M86.801,137.027c3.923,2.215,10.283,2.215,14.206,0c3.923-2.215,3.923-5.807,0-8.022
						c-3.923-2.215-10.283-2.215-14.206,0C82.878,131.22,82.878,134.811,86.801,137.027z"/>
					<path style="fill:#F5F5F5;" d="M101.006,130.043c-3.923-2.215-10.283-2.215-14.206,0c-1.727,0.975-2.692,2.218-2.898,3.492
						c0.206,1.274,1.171,2.516,2.898,3.492c3.923,2.215,10.283,2.215,14.205,0c1.727-0.975,2.692-2.218,2.898-3.492
						C103.699,132.261,102.734,131.018,101.006,130.043z"/>
					<path style="fill:#E0E0E0;" d="M83.206,150.767c-0.014,1.592,1.03,3.186,3.133,4.4c4.178,2.412,10.952,2.412,15.129,0
						c2.089-1.206,3.133-2.787,3.133-4.367v-14.302c0,1.581-1.044,3.161-3.133,4.367c-4.178,2.412-10.951,2.412-15.129,0
						c-2.103-1.214-3.148-2.808-3.133-4.4V150.767z"/>
					<path style="opacity:0.05;" d="M98.285,160.205c-3.934,1.014-8.717,0.603-11.943-1.268c-2.177-1.25-3.209-2.911-3.121-4.564
						h-0.018v-21.359c0,1.582,1.049,3.165,3.139,4.371c0.332,0.192,0.673,0.367,1.032,0.516v19.077
						C87.374,158.763,93.336,160.887,98.285,160.205z"/>
					<g>
						<path style="fill:#E0E0E0;" d="M96.345,136.826l-1.135-0.655c-0.921-0.532-1.168-1.252-0.55-1.608
							c0.617-0.356,1.865-0.214,2.786,0.318l1.135,0.655c0.921,0.532,1.168,1.252,0.55,1.608
							C98.514,137.5,97.267,137.357,96.345,136.826z"/>
						<path style="fill:#F5F5F5;" d="M95.158,135.554c0.337,0.194,0.882,0.194,1.219,0c0.337-0.194,0.337-0.509,0-0.704
							c-0.337-0.194-0.882-0.194-1.219,0C94.822,135.044,94.822,135.359,95.158,135.554z"/>
						<path style="fill:#F5F5F5;" d="M97.408,136.769c0.337,0.194,0.882,0.194,1.219,0c0.337-0.194,0.337-0.509,0-0.704
							c-0.337-0.194-0.882-0.194-1.219,0C97.071,136.26,97.071,136.575,97.408,136.769z"/>
					</g>
				</g>
			</g>
			<g>
				<ellipse style="opacity:0.03;" cx="73.118" cy="165.693" rx="12.67" ry="7.315"/>
				<g>
					<path style="fill:#EBEBEB;" d="M85.074,165.62h0.016v-21.362H63.694v21.362h0.016c-0.09,1.645,0.942,3.308,3.117,4.564
						c4.178,2.412,10.951,2.412,15.129,0C84.132,168.928,85.164,167.265,85.074,165.62z"/>
					<path style="fill:#FAFAFA;" d="M66.827,148.626c4.178,2.412,10.951,2.412,15.129,0c4.178-2.412,4.178-6.323,0-8.735
						c-4.178-2.412-10.951-2.412-15.129,0C62.649,142.303,62.649,146.213,66.827,148.626z"/>
					<path style="fill:#EBEBEB;" d="M67.289,148.269c3.923,2.215,10.283,2.215,14.205,0c3.923-2.215,3.923-5.806,0-8.021
						s-10.283-2.215-14.206,0C63.366,142.462,63.366,146.054,67.289,148.269z"/>
					<path style="fill:#F5F5F5;" d="M81.495,141.285c-3.923-2.215-10.283-2.215-14.206,0c-1.727,0.975-2.692,2.218-2.898,3.492
						c0.206,1.274,1.171,2.516,2.898,3.492c3.923,2.215,10.283,2.215,14.206,0c1.727-0.975,2.692-2.218,2.898-3.492
						C84.187,143.503,83.222,142.261,81.495,141.285z"/>
					<path style="fill:#E0E0E0;" d="M63.694,162.009c-0.014,1.592,1.03,3.186,3.133,4.4c4.178,2.412,10.951,2.412,15.129,0
						c2.089-1.206,3.133-2.787,3.133-4.367V147.74c0,1.581-1.044,3.161-3.133,4.368c-4.178,2.412-10.951,2.412-15.129,0
						c-2.103-1.214-3.148-2.808-3.133-4.4V162.009z"/>
					<path style="opacity:0.05;" d="M78.773,171.448c-3.934,1.014-8.717,0.603-11.943-1.268c-2.177-1.25-3.209-2.911-3.121-4.564
						h-0.017v-21.359c0,1.583,1.049,3.165,3.139,4.371c0.332,0.192,0.673,0.367,1.032,0.516v19.077
						C67.862,170.005,73.825,172.13,78.773,171.448z"/>
					<g>
						<path style="fill:#E0E0E0;" d="M76.834,148.068l-1.135-0.655c-0.921-0.532-1.168-1.252-0.55-1.608
							c0.617-0.357,1.865-0.214,2.786,0.318l1.135,0.655c0.921,0.532,1.168,1.252,0.55,1.608
							C79.002,148.742,77.755,148.6,76.834,148.068z"/>
						<path style="fill:#F5F5F5;" d="M75.646,146.796c0.337,0.194,0.882,0.194,1.219,0c0.337-0.194,0.337-0.509,0-0.704
							c-0.337-0.194-0.882-0.194-1.219,0C75.31,146.287,75.31,146.602,75.646,146.796z"/>
						<path style="fill:#F5F5F5;" d="M77.896,148.012c0.337,0.194,0.882,0.194,1.219,0c0.337-0.194,0.337-0.509,0-0.704
							c-0.337-0.194-0.882-0.194-1.219,0C77.559,147.502,77.559,147.817,77.896,148.012z"/>
					</g>
				</g>
			</g>
			<g>
				<path style="opacity:0.03;" d="M44.647,182.108c4.948,2.857,12.971,2.857,17.919,0c4.948-2.857,4.948-7.489,0-10.345
					c-4.948-2.857-12.971-2.857-17.919,0C39.699,174.619,39.699,179.251,44.647,182.108z"/>
				<g>
					<path style="fill:#EBEBEB;" d="M65.562,176.862h0.016V155.5H44.182v21.362h0.016c-0.09,1.646,0.942,3.308,3.117,4.564
						c4.178,2.412,10.951,2.412,15.129,0C64.62,180.17,65.652,178.508,65.562,176.862z"/>
					<ellipse style="fill:#FAFAFA;" cx="54.88" cy="155.5" rx="10.698" ry="6.177"/>
					<ellipse style="fill:#EBEBEB;" cx="54.88" cy="155.5" rx="10.045" ry="5.672"/>
					<path style="fill:#F5F5F5;" d="M61.983,152.527c-3.923-2.215-10.283-2.215-14.206,0c-1.727,0.975-2.692,2.218-2.898,3.492
						c0.206,1.274,1.171,2.516,2.898,3.492c3.923,2.215,10.283,2.215,14.206,0c1.727-0.975,2.692-2.218,2.898-3.492
						C64.675,154.745,63.71,153.503,61.983,152.527z"/>
					<path style="fill:#E0E0E0;" d="M44.182,173.251c-0.014,1.592,1.03,3.186,3.133,4.4c4.178,2.412,10.951,2.412,15.129,0
						c2.089-1.206,3.133-2.787,3.133-4.367v-14.302c0,1.581-1.044,3.161-3.133,4.368c-4.178,2.412-10.952,2.412-15.129,0
						c-2.103-1.214-3.148-2.808-3.133-4.4V173.251z"/>
					<path style="opacity:0.05;" d="M59.261,182.69c-3.934,1.014-8.717,0.603-11.943-1.268c-2.177-1.25-3.209-2.911-3.121-4.564
						H44.18v-21.359c0,1.582,1.049,3.165,3.139,4.371c0.332,0.192,0.673,0.367,1.032,0.516v19.077
						C48.35,181.247,54.313,183.372,59.261,182.69z"/>
					<g>
						<path style="fill:#E0E0E0;" d="M57.322,159.31l-1.135-0.655c-0.921-0.532-1.168-1.252-0.55-1.608
							c0.617-0.356,1.865-0.214,2.786,0.318l1.135,0.655c0.921,0.532,1.168,1.252,0.55,1.608
							C59.49,159.984,58.243,159.842,57.322,159.31z"/>
						<path style="fill:#F5F5F5;" d="M56.134,158.038c0.337,0.194,0.882,0.194,1.219,0c0.337-0.194,0.337-0.509,0-0.704
							c-0.337-0.194-0.882-0.194-1.219,0C55.798,157.529,55.798,157.844,56.134,158.038z"/>
						<path style="fill:#F5F5F5;" d="M58.384,159.254c0.337,0.194,0.882,0.194,1.219,0c0.337-0.194,0.337-0.51,0-0.704
							c-0.336-0.194-0.882-0.194-1.219,0C58.047,158.744,58.047,159.059,58.384,159.254z"/>
					</g>
				</g>
			</g>
		</g>
	</g>
</g>
<g id="Characters">
	<g id="Characters_2_">
		<path id="Back_Arm_1_" style="fill:#263238;" d="M209.657,128.168c0,0,4.859-1.204,9.077,2.068
			c4.218,3.273,5.732,7.637,6.924,15.408c1.192,7.771,2.961,21.564,2.961,21.564l25.54,18.164c-0.849,0.515-6.376,7.029-6.879,9.916
			c0,0-20.175-7.61-28.546-12.198c-8.371-4.588-8.226-6.66-9.077-10.14c-0.851-3.48-4.356-30.186-3.548-36.142
			C206.919,130.854,207.637,128.965,209.657,128.168z"/>
		<g id="Character_Boy_1_">
			<path style="fill:#263238;" d="M83.729,301.072c-0.904-0.499-3.474,0.835-4.283,1.564c-0.81,0.729-1.728,3.367-1.8,5.697
				c-0.05,1.616,0.75,3.798-0.558,7.005c-1.789,4.385-3.595,8.481-3.046,13.884c0.536,5.269,1.815,6.844,3.467,8.798
				c2.372,2.805,5.293,3.303,7.794,3.292c2.5-0.011,3.629-2.004,3.629-2.004L83.729,301.072z"/>
			<polygon id="XMLID_104_" style="fill:#FFA8A7;" points="172.766,338.426 185.212,340.947 189.835,319.342 177.39,316.821 			"/>
			<g id="XMLID_101_">
				<path id="XMLID_103_" style="fill:#27DEBF;" d="M187.422,272.385c0.272,2.442-1.286,5.964-2.821,9.002
					c-4.721,9.341-9.794,39.908-11.274,48.464c6.921,4.751,14.47,3.163,14.47,3.163s22.505-51.722,23.626-56.151
					c1.691-6.685,3.445-37.205,3.991-48.878c0.669-14.306,1.823-28.799,1.823-28.799l-54.593-4.633c0,0-3.464,13.319-5.87,21.191
					c-2.405,7.872-8.336,30.833-11.817,37.009c-1.218,2.162-4.206,5.406-7.451,6.641c-15.72,5.981-33.552,30.658-40.662,36.04
					c0.028,10.036,8.275,11.916,8.275,11.916s47.64-30.206,51.582-32.764c5.951-3.861,10.508-9.841,15.207-19.581
					c5.211-10.803,14.119-31.394,14.119-31.394S186.52,264.304,187.422,272.385z"/>
				<path id="XMLID_102_" style="opacity:0.5;" d="M187.422,272.385c0.272,2.442-1.286,5.964-2.821,9.002
					c-4.721,9.341-9.794,39.908-11.274,48.464c6.921,4.751,14.47,3.163,14.47,3.163s22.505-51.722,23.626-56.151
					c1.691-6.685,3.445-37.205,3.991-48.878c0.669-14.306,1.823-28.799,1.823-28.799l-54.593-4.633c0,0-3.464,13.319-5.87,21.191
					c-2.405,7.872-8.336,30.833-11.817,37.009c-1.218,2.162-4.206,5.406-7.451,6.641c-15.72,5.981-33.552,30.658-40.662,36.04
					c0.028,10.036,8.275,11.916,8.275,11.916s47.64-30.206,51.582-32.764c5.951-3.861,10.508-9.841,15.207-19.581
					c5.211-10.803,14.119-31.394,14.119-31.394S186.52,264.304,187.422,272.385z"/>
				<path style="opacity:0.2;" d="M186.027,223.614c0.008,0.172,0.335,37.296,1.274,47.56l2.464-45.963
					c6.416-3.208,9.202-7.809,9.202-7.809c-7.182,5.085-12.941,6.207-12.941,6.207V223.614z"/>
				<g>
					<path style="opacity:0.05;" d="M209.746,260.935c-2.619-0.49-4.88-2.134-7.555-2.191c-0.638-0.014-1.341,0.076-1.774,0.524
						c-0.874,0.905-2.055,3.443-2.148,4.653c-0.084,1.09,0.192,2.322-0.519,3.177c-0.609,0.732-1.697,0.869-2.558,1.314
						c-0.697,0.36-1.25,0.93-1.736,1.527c-0.807,0.992-1.457,2.449-0.641,3.435c0.662,0.801,1.925,0.806,2.971,0.602
						c1.046-0.204,2.15-0.54,3.149-0.18c1.374,0.495,1.93,2.117,1.818,3.516c-0.112,1.4-0.7,2.731-0.853,4.127
						c-0.099,0.898,0.004,1.86,0.553,2.594c1.112,1.487,3.62,1.361,5.12,0.228c1.5-1.133,2.243-2.929,2.921-4.638
						c0.674-1.699,1.349-3.398,2.023-5.097c0.479-1.207,0.991-2.448,1.829-3.441c0.313-2.612,0.62-5.783,0.913-9.24
						C212.148,261.403,210.933,261.156,209.746,260.935z"/>
					<path style="opacity:0.05;" d="M194.878,260.638c1.591-0.605,2.407-2.437,2.163-4.058c-0.245-1.621-1.346-3.021-2.646-4.087
						c-1.184-0.971-2.633-1.827-3.128-3.242c-0.434-1.239-0.01-2.601,0.568-3.786c0.577-1.185,1.317-2.326,1.553-3.613
						c0.236-1.287-0.197-2.812-1.422-3.392c-1.544-0.73-3.348,0.372-4.5,1.596c-0.416,0.442-0.793,0.915-1.15,1.401
						c0.103,5.292,0.233,11.051,0.39,16.225c1.003,0.338,1.917,0.998,2.785,1.572C191.086,260.31,193.074,261.324,194.878,260.638z"
						/>
					<path style="opacity:0.15;" d="M181.074,231.521c-0.614-1.694-0.222-3.555,0.217-5.298c0.438-1.743,0.919-3.564,0.468-5.304
						c-0.462-1.779-2.505-3.407-4.514-3.104c-1.468,0.222-2.505,1.543-2.948,2.899c-0.443,1.357-0.449,2.806-0.761,4.196
						c-0.241,1.074-0.754,2.41-1.763,3.044c-1.03,0.648-1.914,0.824-2.81,1.794c-0.704,0.762-1.289,1.682-1.367,2.697
						c-0.064,0.836,0.238,1.691,0.817,2.32c0.503,0.546,1.209,0.933,1.559,1.58c0.564,1.045-0.006,2.289-0.168,3.455
						c-0.208,1.504,0.32,3.064,1.317,4.244c0.997,1.18,2.435,1.987,3.971,2.364c0.25,0.061,0.508,0.097,0.766,0.133
						c2.068-4.533,4.227-9.383,6.023-13.453C181.573,232.581,181.274,232.072,181.074,231.521z"/>
					<path style="opacity:0.05;" d="M173.366,251.934c-0.124-0.121-0.244-0.246-0.372-0.362c-1.605-1.453-3.106-2.066-5.252-2.298
						c-0.4-0.043-0.806-0.086-1.201-0.014c-0.558,0.102-1.042,0.422-1.502,0.74c-0.777,0.537-1.548,1.099-2.161,1.804
						c-0.996,1.148-1.596,2.645-2.559,3.859c-1.021,1.288-2.297,2.459-3.988,2.845c-1.111,0.254-2.368,0.169-3.276,0.832
						c-1.027,0.749-1.136,2.396-0.216,3.263c0.9,0.848,2.554,1.026,2.913,2.185c0.229,0.739-0.225,1.501-0.691,2.13
						c-0.462,0.624-0.956,1.226-1.479,1.804c-0.275,0.304-0.57,0.625-0.633,1.022c-0.093,0.591,0.391,1.159,0.974,1.375
						c0.583,0.216,1.236,0.157,1.852,0.055c3.355-0.557,6.468-2.351,8.55-4.928c0.911-1.128,1.648-2.414,2.807-3.311
						c0.241-0.186,0.499-0.347,0.763-0.498c1.35-2.201,2.676-4.659,4.014-7.431C172.367,254.051,172.857,253.018,173.366,251.934z"
						/>
					<path style="opacity:0.15;" d="M183.744,303.226c-0.579-1.446,0.742-3.029,0.464-4.555c-0.098-0.536-0.389-1.024-0.736-1.456
						c-0.852-1.063-2.017-1.709-3.297-2.106c-0.887,3.584-1.739,7.457-2.529,11.302c1.982,1.361,4.411,2.201,6.808,1.865
						c0.727-0.102,1.525-0.379,1.815-1.025c0.341-0.76-0.194-1.62-0.82-2.19C184.823,304.491,184.053,303.998,183.744,303.226z"/>
					<path style="opacity:0.1;" d="M204.994,248.333c-1.362,0.845-2.932,2.009-2.717,3.548c0.229,1.642,2.263,2.319,3.912,2.825
						c2.269,0.697,4.432,1.706,6.403,2.987c0.308,0.2,0.624,0.41,0.957,0.573c0.602-7.718,1.127-16.285,1.493-22.997
						c-0.698-0.415-1.492-0.676-2.35-0.707c-0.963-0.035-1.996,0.295-2.537,1.058c-0.368,0.518-0.468,1.172-0.449,1.798
						c0.045,1.479,0.696,2.91,0.63,4.389C210.205,244.679,207.516,246.767,204.994,248.333z"/>
					<path style="opacity:0.1;" d="M207.855,206.389c-0.039-0.522-0.174-1.05-0.49-1.478c-0.368-0.498-0.942-0.813-1.504-1.101
						c-2.473-1.263-5.081-2.283-7.771-3.038c-2.07-0.581-4.241-1.018-6.41-0.917c-1.611,0.075-3.985-0.215-5.399,0.531
						c-0.956,0.505-1.876,1.263-2.075,2.29c-0.133,0.687,0.077,1.39,0.315,2.05c0.919,2.548,1.028,4.031,0.689,6.706
						c-0.293,2.309-0.073,4.32,2.143,5.686c1.44,0.887,3.322,1.083,4.927,0.511c1.135-0.404,2.098-1.15,3.004-1.919
						c1.605-1.363,3.177-2.88,5.208-3.544c1.498-0.489,3.161-0.479,4.582-1.147C206.846,210.186,207.995,208.272,207.855,206.389z"
						/>
					<path style="opacity:0.15;" d="M204.456,229.801c-1.018-0.637-2.42-0.89-3.283-1.737c-0.966-0.949-0.756-2.26-1.537-3.351
						c-0.467-0.652-1.244-1.156-2.068-1.103c-1.311,0.084-2.101,1.448-2.348,2.683c-0.247,1.235-0.233,2.586-0.991,3.612
						c-0.476,0.644-1.199,1.073-1.813,1.599c-2.774,2.378,0.476,3.7,1.982,5.217c2.719,2.74-1.157,6.308,0.991,9.116
						c1.026,1.341,3.17,1.537,4.716,0.78c1.546-0.757,2.568-2.238,3.245-3.768c0.677-1.529,1.081-3.162,1.787-4.679
						c0.556-1.194,1.306-2.335,1.519-3.626C206.955,232.738,206.057,230.801,204.456,229.801z"/>
					<path style="opacity:0.1;" d="M192.418,295.244c1.23-1.529,1.095-3.686,0.609-5.557c-0.328-1.263-0.789-2.584-0.405-3.832
						c0.755-2.454,4.476-3.672,4.314-6.226c-0.106-1.672-1.973-2.769-3.714-2.95c-1.741-0.181-3.495,0.248-5.243,0.159
						c-0.44-0.022-0.857-0.125-1.262-0.266c-0.549,1.593-1.335,3.266-2.118,4.815c-1.09,2.156-2.198,5.45-3.276,9.336
						c1.609,1.305,2.397,3.383,3.978,4.742C187.284,297.169,190.793,297.264,192.418,295.244z"/>
					<path style="opacity:0.15;" d="M197.391,288.98c-1.76,1.568-2.385,4.018-2.298,6.317c0.103,2.697,0.975,5.708-0.699,7.88
						c-0.976,1.266-2.807,2.32-2.488,3.863c0.242,1.169,1.612,1.73,2.797,2.1c1.002,0.313,2.023,0.628,3.059,0.791
						c3.291-7.676,6.778-15.874,9.412-22.225C203.639,286.828,199.429,287.164,197.391,288.98z"/>
					<path style="opacity:0.05;" d="M210.794,207.856c-0.727,1.978-0.848,4.159-1.863,6.017c-0.853,1.559-2.266,2.76-3.667,3.9
						c-0.74,0.602-1.511,1.231-1.885,2.088c-0.781,1.791,0.499,3.856,2.164,4.966c1.665,1.11,3.687,1.624,5.42,2.635
						c1.178,0.688,2.207,1.596,3.404,2.253c0.299,0.164,0.615,0.311,0.942,0.433c0.038-0.774,0.074-1.503,0.105-2.164
						c0.42-8.978,1.031-18.027,1.428-23.524c-0.241-0.099-0.48-0.201-0.727-0.281C213.365,203.285,211.599,205.666,210.794,207.856z
						"/>
					<path style="opacity:0.05;" d="M157.302,213.984c1.426,1.356,3.486,1.911,5.207,2.924c1.446,0.851,2.665,2.052,3.51,3.461
						c0.401,0.669,0.737,1.404,1.356,1.896c1.244,0.989,3.293,0.559,4.302-0.65c1.009-1.209,1.111-2.935,0.657-4.419
						c-0.281-0.92-0.757-1.799-0.834-2.754c-0.151-1.886,1.257-3.538,2.686-4.846c1.429-1.308,3.046-2.627,3.525-4.462
						c0.436-1.671-0.203-3.474-1.32-4.825c-1.117-1.351-2.663-2.312-4.242-3.141c-1.52-0.798-3.091-1.621-4.737-2.21l-4.771-0.405
						C162.643,194.553,159.655,206.04,157.302,213.984z"/>
					<path style="opacity:0.15;" d="M149.795,276.536c-0.719-0.335-1.535-0.417-2.296-0.65c-0.762-0.233-1.532-0.692-1.752-1.427
						c-0.24-0.802,0.275-1.497,0.586-2.199c0.407-0.922,0.725-1.93,0.79-2.932c0.083-1.272-0.336-2.645-1.392-3.423
						c-0.621-0.458-1.406-0.673-2.187-0.744c-1.807-0.164-3.766,0.501-4.763,1.951c-0.579,0.842-0.795,1.859-1.011,2.845
						c-0.216,0.987-0.457,2.002-1.075,2.819c-0.788,1.041-2.417,1.413-3.751,2.054c-1.091,0.525-1.984,1.229-2.055,2.628
						c-0.116,2.3,3.568,3.548,3.403,5.846c-0.061,0.844-0.652,1.551-1.073,2.296c-0.62,1.095-0.893,2.367-0.777,3.607
						c0.023,0.244,0.07,0.487,0.132,0.725c7.141-4.532,14.123-8.967,18.775-11.928C150.993,277.378,150.478,276.855,149.795,276.536
						z"/>
					<path style="opacity:0.1;" d="M150.667,242.541c0.279,1.291,0.074,2.636,0.26,3.942c0.142,0.997,0.561,2.023,1.426,2.596
						c0.736,0.488,1.701,0.578,2.579,0.413c1.579-0.297,3.153-0.834,4.023-2.162c0.992-1.513,1.457-3.345,1.278-5.124
						c-0.093-0.921-0.35-1.829-0.327-2.754c0.056-2.285,1.757-4.179,3.254-5.961c1.497-1.782,2.951-3.975,2.406-6.2
						c-0.235-0.96-0.827-1.807-1.497-2.556c-2.19-2.446-5.257-4.018-8.432-5.114c-1.581,5.528-3.811,13.634-5.997,20.623
						C150.111,240.949,150.486,241.704,150.667,242.541z"/>
					<path style="opacity:0.15;" d="M137.505,259.393c-1.152,0.438-2.317,0.988-3.487,1.612c0.066,0.831,0.211,1.671,0.463,2.512
						c0.208,0.696,0.564,1.457,1.283,1.683c1.015,0.318,1.938-0.601,2.683-1.333c1.124-1.104,2.501-1.967,4.001-2.529
						c1.454-0.545,2.788-0.4,4.249-0.717c2.43-0.528,4.156-2.909,4.166-5.292c0.01-2.384-1.493-4.636-3.572-5.95
						c-0.209-0.132-0.428-0.254-0.65-0.367c-0.602,1.542-1.171,2.828-1.685,3.741C143.738,254.914,140.751,258.158,137.505,259.393z
						"/>
					<path style="opacity:0.1;" d="M113.957,277.626c0.156,0.22,0.331,0.428,0.55,0.607c0.916,0.75,2.358,1.065,2.727,2.163
						c0.247,0.734-0.121,1.525-0.569,2.166c-0.449,0.641-1,1.249-1.183,2c-0.35,1.437,0.857,2.899,2.32,3.366
						c1.463,0.466,3.07,0.164,4.536-0.294c2.152-0.673,4.418-1.942,4.897-4.059c0.384-1.698-0.514-3.412-1.536-4.849
						c-0.268-0.377-0.553-0.758-0.674-1.2c-0.201-0.732,0.077-1.505,0.443-2.176c1.009-1.85,2.667-3.284,4.045-4.901
						c1.378-1.617,2.532-3.629,2.222-5.694c-0.117-0.777-0.456-1.379-0.931-1.84C125.029,266.684,119.215,272.169,113.957,277.626z"
						/>
				</g>
			</g>
			<path id="XMLID_100_" style="fill:#37474F;" d="M169.092,132.839c-1.402,1.801-2.418,5.339-2.369,9.309l0,29.03l-5.696,26.561
				c7.501,8.277,48.149,16.856,55.601,4.826c0,0,6.678-43.167,6.654-51.563c-0.016-5.811-1.641-19.017-11.791-22.788l-22.319-0.566
				l-5.731-0.765C177.852,127.09,173.356,127.36,169.092,132.839z"/>
			<g id="XMLID_84_">
				<g id="XMLID_85_">
					<path id="XMLID_99_" style="fill:#263238;" d="M195.592,90.78c-0.459,8.439,6.011,15.653,14.45,16.111
						c8.439,0.459,15.653-6.011,16.111-14.45c0.459-8.439-6.011-15.653-14.45-16.111C203.264,75.871,196.051,82.34,195.592,90.78z"
						/>
					<path id="XMLID_98_" style="fill:#263238;" d="M183.868,101.039c0,0,1.844,11.768,2.733,13.734
						c0.889,1.965,2.911,2.62,2.911,2.62l0.272-8.193L183.868,101.039z"/>
					<path id="XMLID_97_" style="fill:#263238;" d="M187.882,84.542c0,0-2.642-0.602-4.837,1.411
						c-2.152,1.973-1.368,8.559,0.823,15.086l4.635,0.789L187.882,84.542z"/>
					<path id="XMLID_96_" style="fill:#FFA8A7;" d="M189.902,101.908c-0.966,0.508-2.202-1.361-3.29-2.631
						c-1.088-1.269-4.763-3.123-6.857,0.732c-2.133,3.929,1.149,9.453,4.063,10.544c5.021,1.881,5.966-1.354,5.966-1.354
						l-0.612,18.448c4.136,5.158,20.064,9.819,16.647,0.416l0.291-5.609c0,0,3.508,0.983,5.785,0.757
						c3.788-0.376,6.311-2.73,7.887-6.655c2.66-6.627,3.501-13.449,3.183-25.19c-0.385-14.198-17.305-15.209-26.451-10.124
						C187.366,86.329,189.902,101.908,189.902,101.908z"/>
					<path id="XMLID_95_" style="fill:#263238;" d="M189.816,103.482c-0.414-0.226-2.098-3.082-3.205-4.205
						c-1.533-1.555,1.27-14.735,1.27-14.735s-1.37-3.388,1.922-6.638c1.679-1.658,3.747-2.932,6.029-3.563
						c3.276-0.907,6.482-0.201,9.712,0.52c3.442,0.769,6.938,1.542,10.459,1.343c2.741-0.154,5.446-0.906,7.874-2.188
						c0.5-0.264,1.028-0.56,1.592-0.511c1.19,0.103,1.4,1.464,1.28,2.414c-0.224,1.767-0.957,3.466-2.088,4.842
						c0.843-0.125,1.962-0.093,2.23,0.717c0.079,0.239,0.057,0.499,0.002,0.744c-0.168,0.751-0.623,1.405-1.122,1.99
						c-3.482,4.088-9.843,5.634-15.048,5.333c-4.363-0.252-8.521-2.109-12.888-2.289c-0.595-0.024-1.205-0.015-1.763,0.19
						c-0.795,0.293-1.409,0.962-1.796,1.716c-0.387,0.754-0.572,1.593-0.727,2.426c-0.544,2.924-0.514,5.879-0.934,8.817
						C192.404,101.872,191.88,104.605,189.816,103.482z"/>
					<path id="XMLID_94_" style="fill:#263238;" d="M187.834,85.577l-5.49-3.343c0.891-1.577,2.842-2.106,4.358-1.183
						C188.218,81.974,188.725,84,187.834,85.577z"/>
					<path id="XMLID_93_" style="fill:#F28F8F;" d="M206.11,122.456c0,0-8.294-2.146-11.142-3.863
						c-1.906-1.15-3.424-3.046-3.835-4.23c0,0,0.414,2.518,2.045,4.855c1.995,2.858,12.81,5.47,12.81,5.47L206.11,122.456z"/>
					<g id="XMLID_86_">
						<path id="XMLID_92_" style="fill:#263238;" d="M207.88,100.611c-0.053,0.965-0.848,1.703-1.775,1.65
							c-0.928-0.053-1.638-0.878-1.585-1.842c0.052-0.964,0.847-1.703,1.775-1.65C207.223,98.822,207.933,99.647,207.88,100.611z"/>
						<path id="XMLID_91_" style="fill:#263238;" d="M206.5,94.792l-3.703,1.789c-0.474-1.062-0.029-2.323,0.993-2.817
							C204.813,93.27,206.027,93.73,206.5,94.792z"/>
						<path id="XMLID_90_" style="fill:#F28F8F;" d="M205.915,112.321l4.639,2.034c-0.542,1.332-2.02,1.956-3.302,1.395
							C205.971,115.188,205.372,113.653,205.915,112.321z"/>
						<path id="XMLID_89_" style="fill:#263238;" d="M220.872,97.665l-3.141-2.703c0.72-0.902,2.006-1.029,2.874-0.282
							C221.472,95.426,221.591,96.763,220.872,97.665z"/>
						<path id="XMLID_88_" style="fill:#263238;" d="M220.415,101.136c-0.052,0.964-0.847,1.703-1.775,1.65
							c-0.928-0.053-1.638-0.878-1.585-1.842c0.052-0.964,0.847-1.703,1.775-1.65C219.758,99.346,220.467,100.171,220.415,101.136z"
							/>
						<polygon id="XMLID_87_" style="fill:#F28F8F;" points="212.785,99.336 211.317,109.439 217.486,109.109 						"/>
					</g>
				</g>
			</g>
			<g>
				<path style="fill:#263238;" d="M167.965,347.297c-0.665,0.343-0.774,1.135-0.616,2.652c0.158,1.517,1.899,4.178,5.417,5.3
					c3.518,1.122,7.515,0.831,9.223,1.621c2.511,1.162,4.224,3.43,9.523,6.083c4.694,2.351,8.838,2.672,13.114,2.144
					c4.276-0.528,5.425-2.674,5.425-2.674s1.205-2.96,0.309-3.685C209.462,358.011,167.965,347.297,167.965,347.297z"/>
				<path style="fill:#37474F;" d="M177.675,306.269c-2.979-0.15-2.219,1.729-2.895,7.762c-0.711,6.352-1.06,13.87-3.039,19.827
					c-1.98,5.957-3.776,9.966-3.776,14.153c0,0,1.774,3.255,5.768,4.574c3.995,1.319,6.921,1.018,9.335,2.052
					c3.921,1.68,6.062,5.34,13.009,6.761c7.529,1.54,11.385-0.191,14.283-1.791c0,0,0.968-4.609-1.516-6.772
					c-5.866-2.988-15.32-9.915-17.409-13.551c-2.09-3.636,0.836-8.973,3.464-17.236c2.407-7.569,4.365-9.029,1.979-10.055
					l-0.802,1.813c0,0-2.118,0.423-9.575-1.762c-7.456-2.185-9.213-3.875-9.213-3.875L177.675,306.269z"/>
			</g>
			<path style="fill:#37474F;" d="M110.544,281.236c0,0-1.512-1.933-3.516,0.167c-2.004,2.101-9.092,11.266-13.588,14.001
				c-4.497,2.735-5.264,3.725-10.317,5.924c0,0-3.42,3.064-2.725,7.932c0.54,3.786-0.589,7.26-2.356,11.058
				c-2.002,4.301-1.643,10.325,1.08,15.192c2.358,4.215,6.5,5.802,6.5,5.802c4.016,0,7.887-0.366,7.82-7.163
				c-0.072-7.272,0.866-11.271,2.584-16.32c2.304-6.773,5.591-6.81,12.964-11.633c7.373-4.823,14.578-7.401,13.461-9.838
				l-1.598,1.014c0,0-5.232-1.806-10.281-8.329c-2.667-3.446-1.931-5.745-1.931-5.745L110.544,281.236z"/>
		</g>
		<g id="Shopping_cart_1_">
			<g>
				<g>
					<g>
						<path id="XMLID_83_" style="fill:#455A64;" d="M289.75,418.552c0-4.361-3.062-9.663-6.838-11.843
							c-1.982-1.145-3.759-1.19-5.008-0.354l0,0l-4.612,2.633l9.808,16.664l4.571-2.63l-0.007-0.012
							C288.947,422.315,289.75,420.777,289.75,418.552z"/>
						<path id="XMLID_82_" style="fill:#37474F;" d="M278.125,409.467c3.776,2.18,6.838,7.483,6.838,11.844
							c0,4.361-3.061,6.128-6.838,3.948c-3.776-2.18-6.838-7.483-6.838-11.844C271.287,409.055,274.349,407.287,278.125,409.467z"/>
						<path id="XMLID_81_" style="fill:#455A64;" d="M275.81,416.026c0-1.705,1.036-2.488,2.315-1.75
							c1.278,0.738,2.314,2.718,2.314,4.423c0,1.705-1.036,2.488-2.314,1.75C276.847,419.711,275.81,417.731,275.81,416.026z"/>
						<path id="XMLID_80_" style="fill:#37474F;" d="M286.139,402.191c0,0-0.003,7.803-3.722,10.563
							c-0.701,0.52-1.445,0.88-1.884,1.246c-0.949,0.79-0.32,2.242,0.832,2.859c1.676,0.898,10.806-1.532,14.674-8.953
							L286.139,402.191z"/>
						<path id="XMLID_79_" style="fill:#263238;" d="M282.596,404.226c0,0-0.003,7.803-3.722,10.563
							c-0.701,0.52-1.445,0.88-1.884,1.246c-0.949,0.79-0.32,2.242,0.832,2.859c1.676,0.898,10.805-1.532,14.674-8.953
							L282.596,404.226z"/>
						<path id="XMLID_78_" style="fill:#263238;" d="M278.125,416.605c0.362,0.209,0.656,0.718,0.656,1.136
							s-0.294,0.588-0.656,0.379c-0.362-0.209-0.656-0.718-0.656-1.136S277.763,416.396,278.125,416.605z"/>
					</g>
					<g>
						<path id="XMLID_77_" style="fill:#455A64;" d="M342.025,388.375c0-4.36-3.062-9.663-6.838-11.843
							c-1.982-1.145-3.76-1.19-5.008-0.354l0,0l-4.612,2.633l9.807,16.664l4.571-2.63l-0.006-0.012
							C341.221,392.139,342.025,390.601,342.025,388.375z"/>
						<path id="XMLID_76_" style="fill:#37474F;" d="M330.4,379.291c3.776,2.18,6.838,7.483,6.838,11.843
							c0,4.361-3.061,6.128-6.838,3.948c-3.776-2.181-6.838-7.483-6.838-11.844C323.562,378.878,326.623,377.111,330.4,379.291z"/>
						<path id="XMLID_75_" style="fill:#455A64;" d="M328.085,385.85c0-1.704,1.036-2.488,2.315-1.75
							c1.278,0.738,2.315,2.718,2.315,4.423c0,1.704-1.036,2.488-2.315,1.75C329.121,389.535,328.085,387.554,328.085,385.85z"/>
						<path id="XMLID_74_" style="fill:#37474F;" d="M338.414,372.014c0,0-0.003,7.803-3.722,10.563
							c-0.701,0.52-1.446,0.881-1.884,1.246c-0.949,0.79-0.32,2.242,0.832,2.86c1.676,0.898,10.806-1.532,14.674-8.953
							L338.414,372.014z"/>
						<path id="XMLID_73_" style="fill:#263238;" d="M334.87,374.05c0,0-0.003,7.803-3.722,10.563
							c-0.701,0.52-1.445,0.88-1.884,1.246c-0.949,0.79-0.32,2.242,0.832,2.859c1.676,0.898,10.806-1.532,14.674-8.953
							L334.87,374.05z"/>
						<path id="XMLID_72_" style="fill:#263238;" d="M330.4,386.429c0.362,0.209,0.656,0.718,0.656,1.136s-0.294,0.588-0.656,0.379
							c-0.362-0.209-0.656-0.718-0.656-1.136S330.037,386.22,330.4,386.429z"/>
					</g>
					<g>
						<path id="XMLID_71_" style="fill:#455A64;" d="M243.175,391.959c0-4.361-3.062-9.663-6.838-11.843
							c-1.982-1.144-3.759-1.19-5.008-0.355l0,0l-4.611,2.633l9.807,16.664l4.571-2.63l-0.006-0.012
							C242.372,395.723,243.175,394.185,243.175,391.959z"/>
						<path id="XMLID_70_" style="fill:#37474F;" d="M231.55,382.875c3.776,2.18,6.838,7.483,6.838,11.844
							c0,4.361-3.061,6.128-6.838,3.948c-3.776-2.18-6.838-7.483-6.838-11.844C224.712,382.462,227.774,380.695,231.55,382.875z"/>
						<path id="XMLID_69_" style="fill:#455A64;" d="M229.236,389.434c0-1.704,1.036-2.488,2.315-1.75
							c1.278,0.738,2.315,2.718,2.315,4.423c0,1.704-1.036,2.488-2.315,1.75C230.272,393.119,229.236,391.138,229.236,389.434z"/>
						<path id="XMLID_68_" style="fill:#37474F;" d="M239.565,375.598c0,0-0.003,7.803-3.722,10.563
							c-0.701,0.52-1.445,0.88-1.884,1.246c-0.949,0.79-0.32,2.242,0.832,2.859c1.676,0.898,10.806-1.532,14.673-8.953
							L239.565,375.598z"/>
						<path id="XMLID_67_" style="fill:#263238;" d="M236.021,377.634c0,0-0.003,7.803-3.722,10.564
							c-0.701,0.52-1.445,0.88-1.884,1.246c-0.949,0.79-0.32,2.242,0.832,2.86c1.676,0.898,10.806-1.532,14.673-8.953
							L236.021,377.634z"/>
						<path id="XMLID_66_" style="fill:#263238;" d="M231.551,390.013c0.362,0.209,0.656,0.718,0.656,1.136
							c0,0.419-0.294,0.588-0.656,0.379c-0.362-0.209-0.656-0.718-0.656-1.136S231.188,389.804,231.551,390.013z"/>
					</g>
					<g>
						<path id="XMLID_65_" style="fill:#455A64;" d="M295.45,361.783c0-4.361-3.062-9.663-6.838-11.843
							c-1.982-1.145-3.759-1.19-5.008-0.354l0,0l-4.612,2.633l9.808,16.664l4.571-2.63l-0.006-0.011
							C294.647,365.546,295.45,364.008,295.45,361.783z"/>
						<path id="XMLID_64_" style="fill:#37474F;" d="M283.825,352.698c3.776,2.18,6.838,7.483,6.838,11.843
							c0,4.361-3.061,6.128-6.838,3.948c-3.777-2.18-6.838-7.483-6.838-11.844C276.987,352.285,280.048,350.518,283.825,352.698z"/>
						<path id="XMLID_63_" style="fill:#455A64;" d="M281.51,359.257c0-1.705,1.036-2.488,2.315-1.75
							c1.278,0.738,2.315,2.718,2.315,4.423c0,1.704-1.036,2.488-2.315,1.75C282.547,362.942,281.51,360.962,281.51,359.257z"/>
						<path id="XMLID_62_" style="fill:#E0E0E0;" d="M291.84,345.422c0,0-0.003,7.803-3.722,10.563
							c-0.701,0.52-1.445,0.88-1.884,1.246c-0.949,0.79-0.32,2.242,0.832,2.86c1.676,0.898,10.806-1.532,14.673-8.953
							L291.84,345.422z"/>
						<path id="XMLID_61_" style="fill:#263238;" d="M288.296,347.457c0,0-0.003,7.803-3.722,10.563
							c-0.701,0.52-1.446,0.881-1.884,1.246c-0.949,0.79-0.32,2.242,0.832,2.859c1.676,0.898,10.806-1.532,14.674-8.953
							L288.296,347.457z"/>
						<path id="XMLID_60_" style="fill:#263238;" d="M283.825,359.836c0.362,0.209,0.656,0.718,0.656,1.136
							s-0.294,0.588-0.656,0.379c-0.362-0.209-0.656-0.718-0.656-1.136S283.463,359.627,283.825,359.836z"/>
					</g>
					<g>
						<path style="fill:#37474F;" d="M307.002,415.882c-2.587,0-5.174-0.566-7.145-1.701l-66.644-38.139
							c-3.756-2.161-7.806-7.461-7.806-12.258v-64.302h3.572v64.302c0,3.263,3.174,7.527,6.012,9.159l66.644,38.139
							c2.874,1.653,7.904,1.646,10.77-0.015l39.767-22.996c1.057-0.613,1.689-1.381,1.688-2.054c-0.001-0.667-0.602-1.396-1.65-2
							l-66.862-38.106c-3.748-2.158-7.785-7.457-7.785-12.262v-46.313h3.572v46.313c0,3.27,3.162,7.534,5.988,9.162l66.862,38.106
							c2.222,1.28,3.444,3.087,3.447,5.094c0.003,1.994-1.262,3.871-3.47,5.151l-39.767,22.996
							C312.214,415.307,309.607,415.882,307.002,415.882z"/>
					</g>
				</g>
				<polygon id="XMLID_59_" style="fill:#27DEBF;" points="278.043,291.94 223.34,323.523 312.232,374.845 366.934,343.274 				"/>
				<polygon id="XMLID_58_" style="opacity:0.1;" points="278.043,291.94 223.34,323.523 312.232,374.845 366.934,343.274 				"/>
				<g id="XMLID_56_">
					<path id="XMLID_57_" style="fill:#E0E0E0;" d="M218.524,234.117c-1.112-4.494,1.258-10.064,5.267-12.379l40.187-23.38
						c4.009-2.315,8.136-0.317,9.248,4.176l4.816,19.465l-4.74,2.736l-4.73-18.146c-0.621-2.381-2.866-3.312-4.99-2.07
						l-35.994,21.062c-2.564,1.501-4.111,5.096-3.438,7.99l4.01,17.227l-4.82,2.783L218.524,234.117z"/>
				</g>
				<path style="fill:#FFA8A7;" d="M274.329,204.703c-1.185,2.574-7.34,5.316-10.218,5.697c-3.022,0.406-6.468-2.37-6.468-2.37
					l2.396-1.405c1.617-3.64-1.939-4.876-1.939-4.876l-2.303,1.329c-1.871-1.464-2.184-4.063-4.885-5.85
					c0,0-1.736-1.092-3.632-1.939c0.262-2.921,5.333-9.321,6.781-9.981c1.668,1.101,3.657,2.37,4.783,2.997
					c0,0,13.537,3.276,15.661,7.814C275.209,197.6,274.862,203.518,274.329,204.703z"/>
				<g>
					<polygon id="XMLID_55_" style="fill:#27DEBF;" points="223.34,253.581 278.042,221.998 278.043,291.941 223.34,323.523 					
						"/>
					<polygon id="XMLID_54_" style="opacity:0.2;fill:#FFFFFF;" points="223.34,253.581 278.042,221.998 278.043,291.941 
						223.34,323.523 					"/>
				</g>
				<g>
					<path id="XMLID_49_" style="fill:#27DEBF;" d="M278.042,221.999l0,69.943l88.891,51.322l20.513-58.099L278.042,221.999z
						 M307.125,292.262c-2.352,0.757-4.952-0.782-5.806-3.436l-11.771-36.573c-0.855-2.655,0.359-5.421,2.712-6.178
						c2.352-0.757,4.952,0.781,5.806,3.436l11.771,36.573C310.692,288.739,309.477,291.504,307.125,292.262z M332.493,305.993
						c-2.352,0.757-4.952-0.781-5.806-3.436l-11.772-36.573c-0.854-2.655,0.36-5.421,2.712-6.178
						c2.352-0.757,4.951,0.781,5.806,3.436l11.771,36.572C336.059,302.47,334.845,305.236,332.493,305.993z M357.86,319.725
						c-2.352,0.757-4.952-0.781-5.806-3.436l-11.772-36.572c-0.854-2.655,0.36-5.421,2.712-6.178
						c2.352-0.757,4.951,0.781,5.806,3.436l11.772,36.573C361.427,316.202,360.212,318.967,357.86,319.725z"/>
					<path id="XMLID_44_" style="opacity:0.55;fill:#FFFFFF;" d="M278.042,221.999l0,69.943l88.891,51.322l20.513-58.099
						L278.042,221.999z M307.125,292.262c-2.352,0.757-4.952-0.782-5.806-3.436l-11.771-36.573
						c-0.855-2.655,0.359-5.421,2.712-6.178c2.352-0.757,4.952,0.781,5.806,3.436l11.771,36.573
						C310.692,288.739,309.477,291.504,307.125,292.262z M332.493,305.993c-2.352,0.757-4.952-0.781-5.806-3.436l-11.772-36.573
						c-0.854-2.655,0.36-5.421,2.712-6.178c2.352-0.757,4.951,0.781,5.806,3.436l11.771,36.572
						C336.059,302.47,334.845,305.236,332.493,305.993z M357.86,319.725c-2.352,0.757-4.952-0.781-5.806-3.436l-11.772-36.572
						c-0.854-2.655,0.36-5.421,2.712-6.178c2.352-0.757,4.951,0.781,5.806,3.436l11.772,36.573
						C361.427,316.202,360.212,318.967,357.86,319.725z"/>
				</g>
			</g>
			<g id="Character_1_">
				<g>
					<path style="fill:#9A4A4D;" d="M423.513,213.677c-0.923-2.157-4.81,0.097-8.874,2.51c-3.739,2.22-10.974,6.482-11.586,5.748
						c-0.614-0.735-0.451-4.013-1.571-6.06c-1.094-1.998-3.686-2.478-3.51-0.594c0.1,1.08-0.261,4.739-0.339,6.408
						c-0.08,1.669-0.304,3.931-1.848,5.054c-1.545,1.123-32.843,8.715-32.843,8.715s-25.917-12.54-31.246-15.448
						c-5.329-2.908-9.605-5.771-17.054-4.759c-9.525,4.354-5.441,13.114-0.733,18.544c2.58,2.975,3.876,0.888,12.747,3.781
						c10.737,3.501,27.383,13.404,36.286,13.965c9.797-1.845,35.219-11.34,37.728-11.972c3.017-0.76,5.003-0.328,7.425-0.962
						c2.914-0.761,5.43-1.275,7.969-3.095c0.722-0.517,1.419-1.221,1.484-2.106c0.033-0.451-0.105-0.901-0.078-1.353
						c0.042-0.701,0.447-1.524,0.382-2.223c-0.09-0.966-1.239-1.789-1.267-2.759c-0.013-0.425,0.523-1.626,0.363-2.021
						c-0.338-0.837-0.755-1.032-1.17-1.651c-0.224-0.335-0.859-0.911-0.496-1.336c0.439-0.516,1.704-1.15,4.385-3.36
						C422.348,216.493,424.144,215.151,423.513,213.677z"/>
					<g>
						<path style="fill:#27DEBF;" d="M336.918,340.488c-12.488,9.721-34.48,5.587-45.71-1.963
							c-10.1-6.79-21.886-22.245-21.886-22.245s-0.864-8.238,3.365-9.446L336.918,340.488z"/>
						<path style="opacity:0.5;" d="M336.918,340.488c-12.488,9.721-34.48,5.587-45.71-1.963
							c-10.1-6.79-21.886-22.245-21.886-22.245s-0.864-8.238,3.365-9.446L336.918,340.488z"/>
						<path style="opacity:0.2;" d="M270.34,308.692c-0.604,1.027-0.845,2.277-0.921,3.374c3.078,3.523,8.104,8.389,15.672,13.268
							c14.344,9.247,24.308,10.035,24.308,10.035c-6.576-2.571-14.865-6.509-23.427-12.338
							C277.066,316.967,272.844,312.84,270.34,308.692z"/>
					</g>
					<g>
						<g>
							<path style="fill:#263238;" d="M257.285,325.121c-2.551,0.758-7.273-0.054-10.716-3.477
								c-3.443-3.423-4.833-8.975-1.723-13.639c3.109-4.664,6.388-6.774,8.164-9.662c1.777-2.887,2.657-7.467,4.664-9.884
								c1.908-2.296,4.483-2.888,6.415-2.956c1.583-0.055,3.092,0.678,4.104,1.897l0.962,1.16L257.285,325.121z"/>
						</g>
						<g>
							<path style="fill:#37474F;" d="M282.844,332.177c0,0-10.68-11.433-15.459-16.33c-4.78-4.896-7.111-5.945-5.945-11.541
								c1.166-5.596,9.349-9.792,9.349-9.792l10.236,11.891l11.612,14.391C288.461,321.558,282.988,326.733,282.844,332.177z"/>
						</g>
						<g>
							<path style="fill:#37474F;" d="M267.385,315.847l-5.564,0.09c0,0,0.602,6.493-1.193,7.907
								c-2.658,2.093-4.907,1.662-9.362-1.663c-5.093-3.801-6.524-8.511-4.795-12.434c2.461-5.585,9.312-7.996,10.687-13.725
								c1.375-5.729,6.634-12.366,12.909-6.724c4.468,3.895,6.495,16.584,6.495,16.584L267.385,315.847z"/>
						</g>
						<g>
							<path style="fill:#263238;" d="M265.398,300.254c-0.225,0-0.449-0.01-0.671-0.03c-5.699-0.528-8.047-3.3-8.143-3.418
								l0.92-0.758l-0.46,0.379l0.459-0.382c0.021,0.025,2.165,2.513,7.334,2.991c5.174,0.488,11.231-5.882,11.293-5.946
								l0.867,0.819C276.743,294.176,270.946,300.254,265.398,300.254z"/>
						</g>
						<g>
							<path style="fill:#263238;" d="M251.441,314.85c-1.719,0.046-4.194-0.214-5.367,1.532c1.321,2.352,1.987,3.896,4.781,5.981
								c4.455,3.324,7.116,3.575,9.774,1.481c1.795-1.414,1.193-7.907,1.193-7.907C257.416,316.2,254.18,314.776,251.441,314.85z"/>
						</g>
						<g>
							<path style="fill:#263238;" d="M265.251,315.976c-1.16-0.569-2.495-0.578-3.645-1.259c-0.644-0.382-1.029-0.682-1.495-1.283
								c-0.253-0.326-0.424-0.625-0.862-0.655c-0.219-0.015-0.542,0.094-0.5,0.371c0.415,2.752,4.216,3.828,6.481,3.141
								C265.405,316.239,265.408,316.053,265.251,315.976z"/>
						</g>
						<g>
							<path style="fill:#263238;" d="M268.943,313.35c0.276-0.357,0.574-0.549,0.72-0.983c0.031-0.094-0.06-0.202-0.141-0.233
								c-1.297-0.487-2.272,1.799-2.186,3.575c-0.231-0.148-0.486-0.276-0.691-0.407c-0.497-0.315-0.976-0.683-1.363-1.131
								c-0.324-0.375-0.777-0.943-0.924-1.416c-0.133-0.427,0.045-0.986-0.224-1.353c-0.149-0.202-0.506-0.143-0.649,0.034
								c-0.91,1.126,0.195,2.778,1,3.636c0.636,0.679,1.934,1.559,2.951,1.321c0.167,0.673,0.539,1.178,1.192,1.243
								c0.125,0.013,0.321-0.053,0.237-0.212c-0.38-0.716-0.396-1.78-0.368-2.577C268.515,314.301,268.601,313.792,268.943,313.35z"
								/>
						</g>
						<g>
							<path style="fill:#263238;" d="M271.422,314.353c0.099-0.13-0.027-0.261-0.147-0.304c-1.094-0.391-1.785,1.511-1.954,2.231
								c-0.224,0.956-0.262,3.349,1.152,3.295c0.094-0.004,0.315-0.06,0.289-0.201c-0.175-0.975-0.574-1.86-0.418-2.887
								C270.468,315.679,270.937,314.987,271.422,314.353z"/>
						</g>
						<g>
							<path style="fill:#263238;" d="M273.808,316.738c0.099-0.13-0.027-0.261-0.147-0.304c-1.094-0.391-1.785,1.511-1.954,2.231
								c-0.224,0.956-0.262,3.349,1.152,3.295c0.094-0.003,0.315-0.06,0.289-0.201c-0.175-0.975-0.574-1.86-0.417-2.887
								C272.854,318.065,273.323,317.373,273.808,316.738z"/>
						</g>
						<g>
							<path style="fill:#263238;" d="M276.193,319.124c0.099-0.13-0.027-0.261-0.147-0.304c-1.094-0.391-1.785,1.511-1.954,2.231
								c-0.225,0.956-0.262,3.349,1.151,3.295c0.094-0.004,0.315-0.06,0.289-0.201c-0.175-0.974-0.573-1.86-0.417-2.887
								C275.239,320.45,275.708,319.759,276.193,319.124z"/>
						</g>
						<g>
							<path style="fill:#263238;" d="M278.579,321.509c0.099-0.13-0.027-0.261-0.147-0.304c-1.094-0.391-1.785,1.511-1.954,2.231
								c-0.225,0.955-0.262,3.348,1.152,3.295c0.094-0.004,0.315-0.06,0.29-0.201c-0.175-0.975-0.574-1.86-0.418-2.887
								C277.625,322.836,278.094,322.144,278.579,321.509z"/>
						</g>
						<g>
							<path style="fill:#263238;" d="M280.965,323.895c0.099-0.13-0.027-0.261-0.147-0.304c-1.094-0.391-1.785,1.511-1.954,2.231
								c-0.225,0.956-0.262,3.348,1.152,3.295c0.094-0.004,0.315-0.06,0.29-0.201c-0.175-0.975-0.574-1.86-0.417-2.887
								C280.01,325.221,280.479,324.53,280.965,323.895z"/>
						</g>
					</g>
					<g id="XMLID_43_">
						<path style="fill:#27DEBF;" d="M359.291,317.155c-0.981-4.298-9.263-13.904-17.313-20.66
							c-8.049-6.765-20.892-18.061-20.892-18.061l-0.006,0.006c0.001-0.002,0.002-0.004,0.003-0.006l-51.584,3.08
							c-3.14,4.626-4.219,13.547-2.44,19.297c2.409,7.787,4.682,12.53,18.914,22.22c8.561,5.83,16.851,9.767,23.427,12.338
							c6.784,2.653,10.88,6.889,12.431,7.21c3.858,0.799,8.333,1.021,12.037-0.32c4.936-1.786,6.776-6.385,5.381-11.273
							c0.003,0,0.007,0.001,0.01,0.001c0.961,0.091,1.921,0.142,2.811,0.152c1.042,0.03,1.992,0.02,2.74,0.02
							c2.71-0.01,5.451-0.263,7.989-1.214C358.472,327.844,360.717,323.364,359.291,317.155z"/>
						<path style="opacity:0.5;" d="M359.291,317.155c-0.981-4.298-9.263-13.904-17.313-20.66
							c-8.049-6.765-20.892-18.061-20.892-18.061l-0.006,0.006c0.001-0.002,0.002-0.004,0.003-0.006l-51.584,3.08
							c-3.14,4.626-4.219,13.547-2.44,19.297c2.409,7.787,4.682,12.53,18.914,22.22c8.561,5.83,16.851,9.767,23.427,12.338
							c6.784,2.653,10.88,6.889,12.431,7.21c3.858,0.799,8.333,1.021,12.037-0.32c4.936-1.786,6.776-6.385,5.381-11.273
							c0.003,0,0.007,0.001,0.01,0.001c0.961,0.091,1.921,0.142,2.811,0.152c1.042,0.03,1.992,0.02,2.74,0.02
							c2.71-0.01,5.451-0.263,7.989-1.214C358.472,327.844,360.717,323.364,359.291,317.155z"/>
						<g>
							<path style="opacity:0.05;" d="M327.77,288.288c-1.561,1.894-2.413,2.911-4.93,3.614c-1.96,0.547-4.523,0.6-5.3,2.48
								c-0.841,2.035,1.388,4.026,3.472,4.738c2.084,0.712,4.588,1.154,5.639,3.089c0.382,0.703,0.505,1.514,0.776,2.268
								c0.738,2.053,2.667,3.627,4.826,3.938c2.159,0.311,4.454-0.655,5.74-2.417c0.564-0.772,0.946-1.679,1.605-2.372
								c1.958-2.059,5.363-1.425,7.999-0.364c0.726,0.292,1.534,0.589,2.328,0.748c-2.483-2.62-5.225-5.23-7.946-7.514
								c-3.444-2.894-7.763-6.616-11.58-9.93C329.391,286.862,328.495,287.408,327.77,288.288z"/>
							<path style="opacity:0.15;" d="M287.8,305.121c0.088,3.405,3.272,6.156,6.641,6.664c3.368,0.508,6.772-0.775,9.681-2.547
								c1.16-0.707,2.294-1.515,3.088-2.617c0.795-1.102,1.21-2.548,0.814-3.848c-0.374-1.229-1.398-2.149-2.476-2.849
								c-1.651-1.073-3.536-1.783-5.485-2.067c-1.27-0.185-2.57-0.193-3.811-0.515c-3.564-0.927-6.488-2.658-10.209-3.056
								c-2.4-0.257-7.392,0.968-4.968,4.664c1.517,2.312,5.936,1.811,6.633,4.488C287.851,303.983,287.785,304.557,287.8,305.121z"
								/>
							<path style="opacity:0.05;" d="M299.904,327.255c0.456,1.298,2.131,1.596,3.507,1.631c4.67,0.119,11.438-2.375,14.784,2.246
								c0.801,1.106,1.29,2.591,2.55,3.116c1.019,0.424,2.244,0.018,3.032-0.754c0.788-0.772,1.211-1.843,1.489-2.911
								c0.566-2.176,0.609-4.539-0.22-6.628c-0.829-2.09-2.611-3.857-4.805-4.35c-1.349-0.304-2.889-0.171-3.959-1.048
								c-2.459-2.016,0.2-5.098-2.779-6.751c-3.751-2.082-13.891,0.244-13.047,5.863c0.045,0.302,0.122,0.613,0.234,0.934
								c0.368,1.058,1.224,1.971,1.243,3.091C301.967,323.731,299.229,325.333,299.904,327.255z"/>
							<path style="opacity:0.05;" d="M336.971,332.622c-1.719-0.484-5.776,0.08-7,1.442c-1.15,1.28-0.874,3.28-1.545,4.864
								c-0.634,1.497-2.1,2.52-3.658,2.987c-1.558,0.467-3.216,0.452-4.84,0.383c-1.244-0.053-2.656-0.075-3.527,0.815
								c-0.759,0.776-0.781,2.001-0.348,3.02c7.009,0.272,13.958-1.016,19.41-4.613c2.694-1.54,4.11-4.112,4.222-7.052
								C339.019,333.613,338.13,332.948,336.971,332.622z"/>
							<path style="opacity:0.05;" d="M275.025,307.592c2.389-1.583,2.473-5.038,1.968-7.859c-0.505-2.821-1.294-5.919,0.137-8.401
								c1.304-2.263,4.294-3.652,4.462-6.258c0.109-1.69-1.086-3.147-2.481-4.168l-10.19,0.608
								c-3.14,4.626-4.219,13.547-2.441,19.297c0.781,2.523,1.551,4.727,2.715,6.882c0.244,0.094,0.486,0.196,0.736,0.274
								C271.612,308.494,273.558,308.564,275.025,307.592z"/>
							<path style="opacity:0.1;" d="M317.686,280.157c-5.678-0.948-11.631-0.181-16.883,2.177
								c-1.217,0.546-2.707,0.316-3.517,1.543c-4.033,6.116,5.653,10.884,10.406,10.689c0.869-0.036,1.758-0.168,2.511-0.603
								c1.964-1.136,2.575-4.048,4.735-4.742c1.352-0.435,2.885,0.186,4.223-0.289c1.496-0.531,2.222-2.229,2.478-3.796
								c0.18-1.097,0.192-2.303-0.423-3.229C320.469,280.781,319.02,280.38,317.686,280.157z"/>
							<path style="opacity:0.05;" d="M358.839,317.793c-0.041-0.212-0.076-0.422-0.125-0.638
								c-0.524-2.294-3.137-6.104-6.676-10.182c-0.849,0.43-1.694,0.915-2.869,0.972c-1.248,0.061-2.577-0.001-3.65,0.638
								c-1.497,0.893-1.938,3.16-0.884,4.549c1.316,1.734,4.371,2.085,4.735,4.232c0.109,0.647-0.082,1.318,0.043,1.962
								c0.131,0.678,0.599,1.246,1.137,1.679c1.561,1.256,3.939,1.502,5.599,0.381C357.373,320.557,358.102,319.15,358.839,317.793z
								"/>
							<path style="opacity:0.05;" d="M292.848,329.127c1.111-0.091,2.243-0.36,3.134-1.029c1.981-1.487,2.139-4.552,1.018-6.761
								c-0.55-1.085-1.423-2.085-2.593-2.419c-1.172-0.334-2.444,0.048-3.639-0.197c-1.199-0.246-2.237-1.163-2.628-2.323
								c-0.336-0.995-0.218-2.107-0.607-3.082c-0.491-1.23-1.716-2.03-2.977-2.434c-2.356-0.756-5.741-0.65-7.649,1.025
								c-1.507,1.324-2.575,3.39-2.055,5.328c0.373,1.39,1.468,2.45,2.518,3.435C281.825,324.854,285.969,329.782,292.848,329.127z"
								/>
							<path style="opacity:0.05;" d="M353.791,329.538c-0.017-0.204-0.045-0.408-0.084-0.609c-0.568-2.903-3.298-4.852-5.988-6.084
								c-2.023-0.927-4.476-2.02-4.767-4.226c-0.078-0.593,0.023-1.202-0.083-1.791c-0.234-1.297-1.419-2.218-2.639-2.717
								c-2.714-1.109-6.58-1.198-7.589,1.886c-1.67,5.106,2.84,7.024,4.603,10.815c0.479,1.03,0.873,2.098,1.386,3.112
								c0.189,0.374,0.399,0.74,0.625,1.097c-0.003-0.011-0.005-0.022-0.009-0.034c0.003,0,0.007,0.001,0.01,0.001
								c0.961,0.091,1.921,0.142,2.811,0.152c1.042,0.03,1.992,0.02,2.741,0.02c2.71-0.01,5.451-0.263,7.989-1.214
								C353.143,329.819,353.473,329.682,353.791,329.538z"/>
							<path style="opacity:0.05;" d="M290.63,338.525c4.31,2.898,10.207,5.288,16.542,6.588c1.708-0.532,3.5-1.184,4.576-2.61
								c1.089-1.443,0.974-3.915-0.66-4.687c-1.806-0.854-3.725,0.801-5.635,1.388c-1.717,0.527-3.691,0.115-5.054-1.055
								c-0.807-0.693-1.387-1.606-2.085-2.408c-2.057-2.362-11.487-5.661-13.34-1.688
								C286.862,335.736,288.774,337.277,290.63,338.525z"/>
						</g>
						<path style="opacity:0.2;" d="M342.07,331.14c-0.89-0.01-1.851-0.061-2.811-0.152c-5.056-10.79-28.274-28.952-29.73-30.196
							c-0.04-0.04-0.071-0.071-0.071-0.071c0.05-0.071,0.111-0.108,0.172-0.179l1.072-1.524h0.01
							c1.709-3.572,3.651-6.172,3.651-6.172c-0.546,2.548-1.658,5.323-2.457,7.163c3.408,3.054,16.22,13.861,20.043,17.491
							C335.962,321.324,340.128,325.74,342.07,331.14z"/>
					</g>
					<path id="XMLID_42_" style="fill:#37474F;" d="M314.641,215.252c2.355,1.877,6.528,4.974,10.151,12.886
						c3.517,7.682,3.323,14.137-3.28,22.863c0,2.066-3.429,13.854-3.429,13.854s3.052,12.587,2.997,13.585
						c0,0-3.563,10.364-21.619,11.831c-17.128,1.391-24.804-1.822-31.099-7.206c3.773-10.742,11.555-21.873,11.555-21.873
						c-0.6-11.729-4.475-26.867-3.355-31.156c1.39-5.319,10.291-11.13,12.483-11.332l15.254-2.719L314.641,215.252z"/>
					<path style="fill:#263238;" d="M276.89,279.998c-1.153-5.165,4.734-15.327,4.734-15.327l5.265,4.7
						c-2.818-6.067-3.727-12.984-3.064-20.6c0,0,26.65,8.324,36.196,9.09c0.777-2.949,1.491-5.918,1.491-6.86
						c0.084-0.111,0.155-0.217,0.237-0.328l-5.979-5.353l-25.649-15.583l-11.964-2.854c-0.748,1.04-1.32,2.105-1.594,3.153
						c-1.121,4.289,2.755,19.427,3.355,31.156c0,0-7.782,11.131-11.555,21.873c6.295,5.385,13.971,8.598,31.099,7.206
						C299.462,290.271,278.043,285.163,276.89,279.998z"/>
					<g id="XMLID_31_">
						<g>
							<path id="XMLID_41_" style="fill:#263238;" d="M309.28,210.281l-2.007,0.119c-12.683,0.754-23.577-8.916-24.331-21.6l0-0.004
								c-0.756-12.704,8.945-23.608,21.651-24.336l2.007-0.115c12.684-0.727,23.556,8.967,24.284,21.651l0,0
								C331.611,198.663,321.946,209.528,309.28,210.281z"/>
							<path style="fill:#263238;" d="M270.311,221.867L270.311,221.867c8.974-0.514,15.833-8.207,15.318-17.181l-1.403-24.482l0,0
								c-8.975,0.514-15.833,8.207-15.318,17.181L270.311,221.867z"/>
							<path style="fill:#263238;" d="M285.569,179.727c-1.451,1.409-3.741,1.364-5.139-0.076c-1.398-1.44-1.375-3.73,0.076-5.139
								L285.569,179.727z"/>
						</g>
						<path id="XMLID_40_" style="fill:#B16668;" d="M320.337,175.143c2.516,1.679,8.443,8.564,7.375,22.257
							c-0.905,11.605-4.829,14.27-6.765,14.993c-1.936,0.724-5.556,0.021-9.07-0.764l-0.289,5.276c0,0,2.852,3.022,3.054,4.962
							c0.333,3.2-5.463,3.497-10.08,1.62c-5.148-2.093-7.644-6.045-7.644-6.045l0.854-15.98c0,0-3.318,2.166-6.115,0.096
							c-3.783-2.802-3.848-7.779-1.445-9.966c2.403-2.186,7.27-1.186,8.009,2.057c0,0,4.753,1.487,12.51-2.238
							C318.488,187.686,319.59,179.62,320.337,175.143z"/>
						<g id="XMLID_34_">
							<path id="XMLID_39_" style="fill:#263238;" d="M312.504,189.152l-3.138,1.714c-0.457-0.902-0.126-2.016,0.741-2.489
								C310.974,187.904,312.047,188.251,312.504,189.152z"/>
							<path id="XMLID_38_" style="fill:#9A4A4D;" d="M314.749,203.641l3.335,1.268c-0.335,0.956-1.353,1.447-2.274,1.097
								C314.888,205.656,314.414,204.597,314.749,203.641z"/>
							<path id="XMLID_37_" style="fill:#263238;" d="M326.255,193.332c-0.004,0.84-0.662,1.516-1.47,1.509
								c-0.808-0.006-1.46-0.691-1.456-1.531c0.004-0.84,0.662-1.515,1.47-1.51C325.607,191.807,326.259,192.492,326.255,193.332z"
								/>
							<path id="XMLID_36_" style="fill:#263238;" d="M314.681,193.995c-0.004,0.84-0.662,1.516-1.47,1.509
								c-0.808-0.006-1.46-0.691-1.456-1.531c0.004-0.84,0.662-1.515,1.47-1.51C314.033,192.47,314.685,193.156,314.681,193.995z"/>
							<polygon id="XMLID_35_" style="fill:#9A4A4D;" points="319.407,192.117 319.158,200.927 323.866,199.746 							"/>
						</g>
						<path id="XMLID_33_" style="fill:#9A4A4D;" d="M311.876,211.628c-2.941-0.498-8.76-2.617-9.961-4.677
							c0,0-0.026,1.361,1.813,3.31c1.839,1.949,8.023,3.631,8.023,3.631L311.876,211.628z"/>
						<path id="XMLID_32_" style="fill:#263238;" d="M318.542,174.034c0,0,2.092,9.079-1.453,17.255c0,0,11.174,1.314,12.252-7.127
							c0,0-0.164-7.005-4.888-11.416L318.542,174.034z"/>
					</g>
				</g>
				<g>
					<path style="fill:#B16668;" d="M289.046,218.703c-8.224,1.148-13.378,5.91-13.171,12.45c0.208,6.54,7.382,10.448,14.861,14.157
						c9.727,4.825,29.713,11.652,35.171,11.931c5.458,0.279,27.833-32.121,27.833-32.121l-12.117-4.742l-18.295,19.519
						l-24.236-10.939C299.093,228.959,294.436,221.853,289.046,218.703z"/>
					<g>
						<g>
							<path style="fill:#455A64;" d="M360.054,194.055c-0.812-0.471-1.933-0.407-3.174,0.309c-2.482,1.433-4.494,4.918-4.494,7.784
								c0,1.404,0.484,2.395,1.27,2.874c0.264,0.161,2.033,1.116,2.283,1.262c0.813,0.473,1.935,0.41,3.178-0.308
								c2.482-1.433,4.494-4.918,4.494-7.784c0-1.415-0.492-2.411-1.288-2.886C362.061,195.152,360.305,194.201,360.054,194.055z"/>
							<path style="fill:#37474F;" d="M354.621,203.383c0,2.866,2.012,4.028,4.494,2.595c2.482-1.433,4.494-4.918,4.494-7.784
								c0-2.866-2.012-4.028-4.494-2.595C356.633,197.031,354.621,200.517,354.621,203.383z"/>
							<path style="fill:#27DEBF;" d="M387.541,205.611l-25.892-9.414l-0.002,0.003c-0.149-0.069-0.321-0.111-0.525-0.111
								c-0.424,0-0.927,0.161-1.455,0.466c-2.137,1.234-3.942,4.36-3.942,6.828c0,0.528,0.097,1.639,0.854,1.992l23.147,13.837
								L387.541,205.611z"/>
							<path style="opacity:0.5;" d="M387.541,205.611l-25.892-9.414l-0.002,0.003c-0.149-0.069-0.321-0.111-0.525-0.111
								c-0.424,0-0.927,0.161-1.455,0.466c-2.137,1.234-3.942,4.36-3.942,6.828c0,0.528,0.097,1.639,0.854,1.992l23.147,13.837
								L387.541,205.611z"/>
							<path style="fill:#455A64;" d="M385.19,202.418c-1.216-0.706-2.894-0.609-4.752,0.463c-3.716,2.145-6.728,7.363-6.728,11.653
								c0,2.102,0.725,3.586,1.901,4.303c0.396,0.242,3.043,1.671,3.417,1.889c1.216,0.709,2.897,0.614,4.757-0.461
								c3.716-2.145,6.728-7.363,6.728-11.653c0-2.118-0.737-3.609-1.928-4.32C388.195,204.06,385.566,202.636,385.19,202.418z"/>
							<path style="fill:#37474F;" d="M377.057,216.381c0,4.291,3.012,6.03,6.728,3.884c3.716-2.145,6.728-7.363,6.728-11.653
								c0-4.29-3.012-6.03-6.728-3.884C380.069,206.873,377.057,212.091,377.057,216.381z"/>
							<path style="fill:#263238;" d="M380.78,219.528c-1.865,0-2.067-2.201-2.067-3.147c0-3.693,2.702-8.372,5.9-10.219
								c0.79-0.456,1.543-0.697,2.177-0.697c1.865,0,2.067,2.201,2.067,3.147c0,3.693-2.702,8.372-5.899,10.219
								C382.167,219.287,381.414,219.528,380.78,219.528L380.78,219.528z"/>
							<path style="fill:#27DEBF;" d="M386.648,206.404c0-0.243-0.014-0.57-0.066-0.92c-0.589,0.045-1.262,0.27-1.97,0.678
								c-3.198,1.846-5.9,6.526-5.9,10.219c0,0.243,0.014,0.57,0.066,0.92c0.589-0.045,1.262-0.27,1.97-0.679
								C383.946,214.776,386.648,210.097,386.648,206.404z"/>
							<path style="opacity:0.3;" d="M386.648,206.404c0-0.243-0.014-0.57-0.066-0.92c-0.589,0.045-1.262,0.27-1.97,0.678
								c-3.198,1.846-5.9,6.526-5.9,10.219c0,0.243,0.014,0.57,0.066,0.92c0.589-0.045,1.262-0.27,1.97-0.679
								C383.946,214.776,386.648,210.097,386.648,206.404z"/>
							<path style="fill:#E0E0E0;" d="M382.883,208.24c1.261-1.529,2.89-2.039,3.144-1.473c0.254,0.566-0.539,6.079-5.863,9.327
								c0,0,2.879-2.492,4.277-5.627C385.259,208.632,384.509,207.13,382.883,208.24z"/>
						</g>
						<g>
							<path style="fill:#455A64;" d="M348.841,200.529c-0.812-0.471-1.933-0.407-3.175,0.31c-2.482,1.433-4.494,4.918-4.494,7.784
								c0,1.404,0.484,2.395,1.27,2.875c0.264,0.161,2.033,1.116,2.283,1.262c0.812,0.473,1.935,0.41,3.178-0.308
								c2.482-1.433,4.494-4.918,4.494-7.784c0-1.415-0.492-2.411-1.288-2.886C350.849,201.626,349.092,200.674,348.841,200.529z"/>
							<path style="fill:#37474F;" d="M343.408,209.856c0,2.866,2.012,4.028,4.494,2.595c2.482-1.433,4.494-4.918,4.494-7.784
								c0-2.866-2.012-4.028-4.494-2.595C345.42,203.505,343.408,206.99,343.408,209.856z"/>
							<path style="fill:#27DEBF;" d="M371.84,214.675l-21.3-11.947c-0.023-0.014-0.046-0.027-0.07-0.04l-0.033-0.019l-0.002,0.003
								c-0.149-0.069-0.321-0.111-0.525-0.111c-0.424,0-0.927,0.161-1.455,0.466c-2.137,1.234-3.942,4.36-3.942,6.828
								c0,0.475,0.076,1.422,0.641,1.865l18.873,16.556L371.84,214.675z"/>
							<path style="opacity:0.5;" d="M371.84,214.675l-21.3-11.947c-0.023-0.014-0.046-0.027-0.07-0.04l-0.033-0.019l-0.002,0.003
								c-0.149-0.069-0.321-0.111-0.525-0.111c-0.424,0-0.927,0.161-1.455,0.466c-2.137,1.234-3.942,4.36-3.942,6.828
								c0,0.475,0.076,1.422,0.641,1.865l18.873,16.556L371.84,214.675z"/>
							<path style="fill:#263238;" d="M371.572,214.274c-0.535-0.606-0.848-1.528-0.848-2.715c0-1.804,0.722-3.83,1.85-5.532
								l-8.975,5.177c0,0,0.888-0.432,1.331-0.404l6.91,3.876L371.572,214.274z"/>
							<path style="fill:#455A64;" d="M369.489,211.482c-1.216-0.706-2.894-0.609-4.752,0.463
								c-3.716,2.145-6.728,7.363-6.728,11.653c0,2.102,0.725,3.586,1.901,4.303c0.396,0.242,3.043,1.671,3.417,1.889
								c1.216,0.708,2.896,0.613,4.757-0.461c3.716-2.145,6.728-7.363,6.728-11.653c0-2.118-0.737-3.609-1.928-4.32
								C372.495,213.125,369.866,211.701,369.489,211.482z"/>
							<path style="fill:#37474F;" d="M361.356,225.446c0,4.291,3.012,6.03,6.728,3.884c3.716-2.145,6.728-7.363,6.728-11.653
								c0-4.291-3.012-6.03-6.728-3.884C364.368,215.938,361.356,221.155,361.356,225.446z"/>
							<path style="fill:#263238;" d="M365.079,228.593c-1.865,0-2.067-2.201-2.067-3.147c0-3.693,2.702-8.372,5.899-10.219
								c0.79-0.456,1.543-0.697,2.177-0.697c1.865,0,2.067,2.201,2.067,3.147c0,3.693-2.702,8.372-5.899,10.219
								C366.466,228.352,365.714,228.593,365.079,228.593L365.079,228.593z"/>
							<path style="fill:#27DEBF;" d="M370.947,215.469c0-0.243-0.014-0.57-0.066-0.92c-0.589,0.045-1.262,0.27-1.97,0.678
								c-3.198,1.846-5.899,6.526-5.899,10.219c0,0.243,0.014,0.57,0.066,0.92c0.589-0.045,1.262-0.27,1.97-0.678
								C368.245,223.841,370.947,219.161,370.947,215.469z"/>
							<path style="opacity:0.3;" d="M370.947,215.469c0-0.243-0.014-0.57-0.066-0.92c-0.589,0.045-1.262,0.27-1.97,0.678
								c-3.198,1.846-5.899,6.526-5.899,10.219c0,0.243,0.014,0.57,0.066,0.92c0.589-0.045,1.262-0.27,1.97-0.678
								C368.245,223.841,370.947,219.161,370.947,215.469z"/>
							<path style="fill:#E0E0E0;" d="M367.182,217.304c1.261-1.529,2.89-2.039,3.144-1.473c0.254,0.567-0.539,6.08-5.863,9.327
								c0,0,2.88-2.492,4.277-5.627C369.558,217.696,368.809,216.195,367.182,217.304z"/>
						</g>
						<polygon style="fill:#37474F;" points="363.599,200.788 372.569,206.024 363.599,211.203 354.579,205.995 						"/>
					</g>
					<path style="fill:#B16668;" d="M341.624,220.379c3.904-4.067,2.325-8.805,3.93-12.185c1.605-3.38,8.343-6.21,11.225-5.53
						c2.882,0.68,11.761,6.131,10.26,8.422c-0.442,0.066-0.769,0.184-1.088,0.286l-0.956-0.536c0,0-4.006,0.833-6.231,4.063
						c-2.246,3.26-2.255,3.89-2.307,5.088c-0.052,1.198,1.572,3.029,1.572,3.029c-1.194,1.153-3.302,1.058-5.157,3.35
						c-1.99,2.46-3.188,4.234-3.188,4.234L341.624,220.379z"/>
				</g>
			</g>
			<g>
				<g>
					<path id="XMLID_26_" style="fill:#27DEBF;" d="M223.34,253.581l0,69.942l88.891,51.322l20.513-58.099L223.34,253.581z
						 M252.424,323.854c-2.352,0.757-4.952-0.781-5.806-3.436l-11.772-36.573c-0.854-2.655,0.36-5.421,2.712-6.178
						c2.352-0.757,4.951,0.781,5.806,3.436l11.771,36.573C255.99,320.331,254.776,323.097,252.424,323.854z M277.791,337.585
						c-2.352,0.757-4.952-0.781-5.806-3.436l-11.771-36.573c-0.855-2.655,0.359-5.421,2.711-6.178
						c2.352-0.757,4.952,0.781,5.806,3.436l11.772,36.573C281.358,334.062,280.143,336.828,277.791,337.585z M303.159,351.316
						c-2.352,0.757-4.952-0.781-5.806-3.436l-11.772-36.573c-0.855-2.655,0.359-5.421,2.712-6.178
						c2.352-0.757,4.952,0.781,5.806,3.436l11.771,36.572C306.725,347.793,305.511,350.559,303.159,351.316z"/>
					<path id="XMLID_21_" style="opacity:0.65;fill:#FFFFFF;" d="M223.34,253.581l0,69.942l88.891,51.322l20.513-58.099
						L223.34,253.581z M252.424,323.854c-2.352,0.757-4.952-0.781-5.806-3.436l-11.772-36.573c-0.854-2.655,0.36-5.421,2.712-6.178
						c2.352-0.757,4.951,0.781,5.806,3.436l11.771,36.573C255.99,320.331,254.776,323.097,252.424,323.854z M277.791,337.585
						c-2.352,0.757-4.952-0.781-5.806-3.436l-11.771-36.573c-0.855-2.655,0.359-5.421,2.711-6.178
						c2.352-0.757,4.952,0.781,5.806,3.436l11.772,36.573C281.358,334.062,280.143,336.828,277.791,337.585z M303.159,351.316
						c-2.352,0.757-4.952-0.781-5.806-3.436l-11.772-36.573c-0.855-2.655,0.359-5.421,2.712-6.178
						c2.352-0.757,4.952,0.781,5.806,3.436l11.771,36.572C306.725,347.793,305.511,350.559,303.159,351.316z"/>
				</g>
				<g>
					<polygon id="XMLID_20_" style="fill:#27DEBF;" points="332.745,316.745 387.447,285.175 366.934,343.274 312.232,374.845 					
						"/>
					<polygon id="XMLID_18_" style="opacity:0.3;fill:#FFFFFF;" points="332.745,316.745 387.447,285.175 366.934,343.274 
						312.232,374.845 					"/>
				</g>
			</g>
		</g>
		<g id="Front_Arm_1_">
			<path style="fill:#FFA8A7;" d="M179.408,126.883c-4.355,0-13.658,6.905-12.335,19.237c0.691,6.441,15.435,34.092,19.212,40.325
				c3.777,6.233,34.297,25.133,36.997,26.917c2.699,1.785,3.014,4.388,4.884,5.849l2.301-1.328c0,0,3.556,1.237,1.939,4.879
				l-2.402,1.406c0,0,3.446,2.776,6.476,2.37c2.872-0.385,9.029-3.124,10.21-5.701c0.54-1.178,0.881-7.096,0.184-8.582
				c-2.128-4.539-15.664-7.815-15.664-7.815l-28.613-27.412L179.408,126.883z"/>
			<path style="fill:#263238;" d="M181.773,126.883c0,0-7.372-1.08-11.991,4.588c-4.179,5.127-4.687,12.912-2.301,19.854
				c2.386,6.942,14.233,30.881,16.387,35.12s25.913,18.202,25.913,18.202s3.032-9.088,9.824-11.326l-16.125-16.803l-16.653-35.737
				C186.826,140.781,187.001,132.507,181.773,126.883z"/>
		</g>
	</g>
</g>
<g id="Speach_Bubble">
	<g>
		<g id="Speach_Bubble_1_">
			<g id="XMLID_2982_">
				<path id="XMLID_2990_" style="fill:#27DEBF;" d="M300.927,24.348l-37.038,21.338c-0.817,0.472-1.479,1.619-1.479,2.563v50.654
					c0,0.944,0.666,2.084,1.488,2.548l5.3,2.971c0.822,0.464,2.15,0.457,2.967-0.015l37.038-21.338
					c0.817-0.472,1.479-1.619,1.479-2.563V29.853c0-0.943-0.666-2.084-1.488-2.548l-5.3-2.971
					C303.072,23.87,301.743,23.876,300.927,24.348z"/>
				<path id="XMLID_2989_" style="fill:#27DEBF;" d="M270.685,103.554V52.9c0-0.943,0.663-2.091,1.479-2.563l37.038-21.338
					c0.817-0.472,1.479-0.089,1.479,0.854v50.654c0,0.944-0.662,2.091-1.479,2.563l-37.038,21.338
					C271.347,104.88,270.685,104.497,270.685,103.554z"/>
				<path id="XMLID_2988_" style="opacity:0.2;" d="M272.164,104.408c-0.788,0.457-2.226,0.473-2.97,0.017l-5.297-2.977
					c-0.82-0.458-1.49-1.599-1.49-2.542V48.249c0-0.492,0.185-1.032,0.472-1.51l8.242,4.706c-0.273,0.458-0.437,0.984-0.437,1.456
					v50.651C270.685,104.415,271.293,104.913,272.164,104.408z"/>
				<path id="XMLID_2987_" style="opacity:0.4;fill:#FFFFFF;" d="M310.662,29.585c-0.116-0.745-0.724-1.012-1.462-0.588
					l-37.033,21.34c-0.41,0.239-0.779,0.642-1.046,1.107l-8.249-4.706c0.267-0.444,0.622-0.827,1.018-1.052l37.039-21.34
					c0.813-0.472,2.139-0.478,2.966-0.014l5.297,2.97C309.938,27.726,310.56,28.703,310.662,29.585z"/>
				<path id="XMLID_2986_" style="fill:#27DEBF;" d="M258.354,85.814c-0.929-0.553-7.886-4.47-8.111-4.6
					c-0.683-0.417-0.93-1.428-0.294-2.112l12.588-15.706l8.147,4.631l-12.581,15.713C257.487,84.396,257.732,85.363,258.354,85.814z
					"/>
				<path id="XMLID_2985_" style="opacity:0.4;fill:#FFFFFF;" d="M258.354,85.814c-0.929-0.553-7.886-4.47-8.111-4.6
					c-0.683-0.417-0.93-1.428-0.294-2.112l12.588-15.706l8.147,4.631l-12.581,15.713C257.487,84.396,257.732,85.363,258.354,85.814z
					"/>
				<path id="XMLID_2984_" style="fill:#27DEBF;" d="M270.685,68.03L258.1,83.737c-0.853,0.915-0.227,2.17,0.846,2.269l11.738,1.272
					L270.685,68.03z"/>
			</g>
		</g>
		<g>
			<path style="fill:#FAFAFA;" d="M286.704,56.67c0.042,0.887,0.063,1.681,0.063,2.38c0,0.701-0.021,1.486-0.063,2.356
				c-0.106,2.014-0.619,3.865-1.538,5.551c-0.92,1.686-2.12,2.957-3.6,3.812c-1.48,0.854-2.68,0.97-3.599,0.345
				c-0.92-0.624-1.433-1.883-1.539-3.775c-0.042-0.822-0.063-1.582-0.063-2.283c0-0.699,0.021-1.517,0.063-2.453
				c0.085-2.034,0.572-3.886,1.459-5.554c0.888-1.668,2.114-2.954,3.679-3.857c1.564-0.903,2.791-1.033,3.679-0.391
				C286.133,53.443,286.619,54.734,286.704,56.67z M296.075,47.545c0.148-0.378,0.301-0.694,0.46-0.949
				c0.159-0.254,0.385-0.467,0.682-0.638l3.298-1.904c0.233-0.134,0.418-0.151,0.555-0.052c0.137,0.1,0.206,0.296,0.206,0.589
				c0,0.065-0.011,0.153-0.031,0.262c-0.022,0.11-0.053,0.226-0.095,0.348l-15.667,40.783c-0.148,0.379-0.302,0.695-0.46,0.949
				c-0.159,0.255-0.386,0.467-0.682,0.638l-3.299,1.904c-0.233,0.135-0.418,0.152-0.555,0.052c-0.137-0.099-0.206-0.296-0.206-0.589
				c0-0.065,0.01-0.153,0.031-0.263c0.021-0.109,0.053-0.225,0.096-0.348L296.075,47.545z M280.424,65.581
				c0.03,0.593,0.129,1.039,0.297,1.34c0.167,0.303,0.449,0.339,0.845,0.11c0.395-0.228,0.678-0.59,0.845-1.085
				c0.167-0.494,0.266-1.055,0.297-1.683c0.091-2.068,0.091-4.014,0-5.836c-0.03-0.592-0.13-1.038-0.297-1.341
				c-0.167-0.301-0.45-0.338-0.845-0.11c-0.396,0.229-0.678,0.591-0.845,1.085c-0.168,0.496-0.267,1.057-0.297,1.683
				C280.333,61.673,280.333,63.618,280.424,65.581z M305.797,64.906c0.042,0.888,0.064,1.68,0.064,2.38
				c0,0.7-0.022,1.486-0.064,2.356c-0.106,2.014-0.619,3.865-1.538,5.551c-0.92,1.687-2.12,2.957-3.599,3.812
				c-1.481,0.855-2.68,0.969-3.6,0.345c-0.92-0.624-1.433-1.883-1.538-3.775c-0.042-0.822-0.063-1.583-0.063-2.283
				c0-0.7,0.021-1.517,0.063-2.453c0.084-2.034,0.571-3.886,1.459-5.554c0.887-1.668,2.114-2.954,3.679-3.857
				c1.564-0.903,2.79-1.033,3.679-0.391C305.226,61.679,305.712,62.969,305.797,64.906z M299.517,73.817
				c0.03,0.593,0.129,1.039,0.297,1.34c0.166,0.303,0.449,0.339,0.845,0.11c0.395-0.228,0.677-0.589,0.845-1.086
				c0.166-0.494,0.266-1.055,0.296-1.683c0.092-2.068,0.092-4.013,0-5.836c-0.03-0.59-0.13-1.038-0.296-1.34
				c-0.168-0.301-0.45-0.338-0.845-0.11c-0.396,0.229-0.679,0.592-0.845,1.085c-0.168,0.495-0.267,1.057-0.297,1.683
				C299.426,69.909,299.426,71.855,299.517,73.817z"/>
		</g>
	</g>
</g>
</svg>
